<?xml version="1.0" encoding="UTF-8"?>
<svg id="Layer_1" xmlns="http://www.w3.org/2000/svg" version="1.1" viewBox="0 0 384 384">
  <!-- Generator: Adobe Illustrator 29.3.1, SVG Export Plug-In . SVG Version: 2.1.0 Build 151)  -->
  <defs>
    <style>
      .st0 {
        fill: #433bff;
      }

      .st1 {
        fill: #fefefe;
      }
    </style>
  </defs>
  <path d="M335.92,0c2.5,1.76,4.7,2.74,5.64,5.98v372.04c-.94,3.24-3.14,4.22-5.64,5.98H47.73c-2.65-2.45-5.37-4.45-5.28-8.59l.39-369.43c.94-3.24,3.14-4.22,5.64-5.98h287.44ZM75.42,16.5c-5.48.03-10.99-.02-16.47,0v351c5.48.02,10.99-.03,16.47,0s10.99.03,16.47,0,10.99.02,16.47,0v-160.88c0-1.62,3.95-5.81,5.97-6.02l153.86-.37c2.73-.36,7.84,4.15,7.84,6.39v160.88c5.48.02,10.99-.03,16.47,0s10.99.03,16.47,0,10.99.02,16.47,0V16.5c-5.48-.02-10.99.03-16.47,0s-10.99-.03-16.47,0-10.99-.02-16.47,0v160.88c0,2.24-5.11,6.76-7.84,6.39l-153.86-.37c-2.02-.21-5.97-4.4-5.97-6.02V16.5c-5.48-.02-10.99.03-16.47,0s-10.99-.03-16.47,0ZM259.56,16.5H124.83v150.75h134.74V16.5ZM259.56,216.75H124.83v150.75h134.74v-150.75Z"/>
  <path class="st1" d="M75.42,16.5c.94,7.82-4,25.95,8.61,25.56,11.72-.36,6.89-18.09,7.85-25.56,5.48.03,10.99-.02,16.47,0v160.88c0,1.62,3.95,5.81,5.97,6.02l153.86.37c2.73.36,7.84-4.15,7.84-6.39V16.5c5.48-.02,10.99.03,16.47,0,.94,7.82-4,25.95,8.61,25.56,11.72-.36,6.89-18.09,7.85-25.56,5.48.03,10.99-.02,16.47,0v351c-5.48.02-10.99-.03-16.47,0-.94-7.82,4-25.95-8.61-25.56-11.72.36-6.89,18.09-7.85,25.56-5.48-.03-10.99.02-16.47,0v-160.88c0-2.24-5.11-6.76-7.84-6.39l-153.86.37c-2.02.21-5.97,4.4-5.97,6.02v160.88c-5.48.02-10.99-.03-16.47,0-.94-7.82,4-25.95-8.61-25.56-11.72.36-6.89,18.09-7.85,25.56-5.48-.03-10.99.02-16.47,0V16.5c5.48-.02,10.99.03,16.47,0ZM81.19,75.16c-2.66.61-5.12,3.78-5.59,6.39-.7,3.87-.68,20.38,1.01,23.38,3.64,6.49,13.79,4.56,15.11-2.74.7-3.86.68-20.39-1.01-23.38-1.9-3.38-5.86-4.5-9.51-3.65ZM298.27,75.16c-2.66.61-5.12,3.78-5.59,6.39-.7,3.87-.68,20.38,1.01,23.38,3.64,6.49,13.79,4.56,15.11-2.74.7-3.86.68-20.39-1.01-23.38-1.9-3.38-5.86-4.5-9.51-3.65ZM81.19,141.91c-2.66.61-5.12,3.78-5.59,6.39-.7,3.87-.68,20.38,1.01,23.38,3.64,6.49,13.79,4.56,15.11-2.74.7-3.86.68-20.39-1.01-23.38-1.9-3.38-5.86-4.5-9.51-3.65ZM298.27,141.91c-2.66.61-5.12,3.78-5.59,6.39-.7,3.87-.68,20.38,1.01,23.38,3.64,6.49,13.79,4.56,15.11-2.74.7-3.86.68-20.39-1.01-23.38-1.9-3.38-5.86-4.5-9.51-3.65ZM81.19,208.66c-2.66.61-5.12,3.78-5.59,6.39-.7,3.87-.68,20.38,1.01,23.38,3.64,6.49,13.79,4.56,15.11-2.74.7-3.86.68-20.39-1.01-23.38-1.9-3.38-5.86-4.5-9.51-3.65ZM298.27,208.66c-2.66.61-5.12,3.78-5.59,6.39-.7,3.87-.68,20.38,1.01,23.38,3.64,6.49,13.79,4.56,15.11-2.74.7-3.86.68-20.39-1.01-23.38-1.9-3.38-5.86-4.5-9.51-3.65ZM81.19,275.41c-2.66.61-5.12,3.78-5.59,6.39-.66,3.67-.64,19.94.74,22.9,2.87,6.14,13.04,5.55,15.05-1.07.99-3.25.92-16.75.49-20.5-.65-5.73-4.95-9.04-10.7-7.72ZM298.27,275.41c-2.66.61-5.12,3.78-5.59,6.39-.66,3.67-.64,19.94.74,22.9,2.87,6.14,13.04,5.55,15.05-1.07.99-3.25.92-16.75.49-20.5-.65-5.73-4.95-9.04-10.7-7.72Z"/>
  <path class="st1" d="M259.56,16.5v150.75H124.83V16.5h134.74ZM211.86,68.8c-6.76-7.64-12.14-32.6-25.66-22.68l-13.67,22.68c-7.58,2.58-18.03,3.05-25.27,5.81-2.9,1.11-5.18,4.45-5.26,7.55-.16,6.53,14.32,18.23,17.85,24.12,1.94,10.52-9.37,34.46,8.42,33.66l23.67-10.01c10.55,1.82,30.73,20.19,34.53,1.71-.72-8.42-2.05-16.92-1.94-25.35,4.22-6.98,28.23-25.06,12.57-31.65-6.84-2.88-17.94-3.3-25.25-5.82Z"/>
  <path class="st1" d="M259.56,216.75v150.75H124.83v-150.75h134.74ZM170.32,246.21c-30.06,3.49-35.55,39.71-18.53,60.9,4.6,5.73,29.17,25.9,35.67,29.51,5.53,3.06,7.42,1.44,12.15-1.81,8.29-5.69,27.87-21.05,33.62-28.56,18.57-24.25,7.03-63.38-26.35-60.15-4.84.47-12.88,5.29-15,5.15s-6.56-3.34-9.4-4.13c-4.07-1.13-7.95-1.39-12.16-.9Z"/>
  <path class="st0" d="M91.89,16.5c-.96,7.48,3.86,25.21-7.85,25.56-12.62.38-7.68-17.74-8.61-25.56,5.48-.03,10.99-.03,16.47,0Z"/>
  <path class="st0" d="M308.97,16.5c-.96,7.48,3.86,25.21-7.85,25.56-12.62.38-7.68-17.74-8.61-25.56,5.48-.03,10.99-.03,16.47,0Z"/>
  <path class="st0" d="M91.89,367.5c-5.48.03-10.99.03-16.47,0,.96-7.48-3.86-25.21,7.85-25.56,12.62-.38,7.68,17.74,8.61,25.56Z"/>
  <path class="st0" d="M308.97,367.5c-5.48.03-10.99.03-16.47,0,.96-7.48-3.86-25.21,7.85-25.56,12.62-.38,7.68,17.74,8.61,25.56Z"/>
  <path class="st0" d="M81.19,75.16c3.65-.84,7.62.27,9.51,3.65,1.68,3,1.71,19.52,1.01,23.38-1.32,7.3-11.46,9.23-15.11,2.74-1.68-3-1.71-19.52-1.01-23.38.47-2.61,2.93-5.78,5.59-6.39Z"/>
  <path class="st0" d="M298.27,75.16c3.65-.84,7.62.27,9.51,3.65,1.68,3,1.71,19.52,1.01,23.38-1.32,7.3-11.46,9.23-15.11,2.74-1.68-3-1.71-19.52-1.01-23.38.47-2.61,2.93-5.78,5.59-6.39Z"/>
  <path class="st0" d="M81.19,141.91c3.65-.84,7.62.27,9.51,3.65,1.68,3,1.71,19.52,1.01,23.38-1.32,7.3-11.46,9.23-15.11,2.74-1.68-3-1.71-19.52-1.01-23.38.47-2.61,2.93-5.78,5.59-6.39Z"/>
  <path class="st0" d="M298.27,141.91c3.65-.84,7.62.27,9.51,3.65,1.68,3,1.71,19.52,1.01,23.38-1.32,7.3-11.46,9.23-15.11,2.74-1.68-3-1.71-19.52-1.01-23.38.47-2.61,2.93-5.78,5.59-6.39Z"/>
  <path class="st0" d="M81.19,208.66c3.65-.84,7.62.27,9.51,3.65,1.68,3,1.71,19.52,1.01,23.38-1.32,7.3-11.46,9.23-15.11,2.74-1.68-3-1.71-19.52-1.01-23.38.47-2.61,2.93-5.78,5.59-6.39Z"/>
  <path class="st0" d="M298.27,208.66c3.65-.84,7.62.27,9.51,3.65,1.68,3,1.71,19.52,1.01,23.38-1.32,7.3-11.46,9.23-15.11,2.74-1.68-3-1.71-19.52-1.01-23.38.47-2.61,2.93-5.78,5.59-6.39Z"/>
  <path class="st0" d="M81.19,275.41c5.75-1.33,10.05,1.99,10.7,7.72.43,3.75.49,17.26-.49,20.5-2.02,6.63-12.18,7.22-15.05,1.07-1.38-2.96-1.41-19.23-.74-22.9.47-2.61,2.93-5.78,5.59-6.39Z"/>
  <path class="st0" d="M298.27,275.41c5.75-1.33,10.05,1.99,10.7,7.72.43,3.75.49,17.26-.49,20.5-2.02,6.63-12.18,7.22-15.05,1.07-1.38-2.96-1.41-19.23-.74-22.9.47-2.61,2.93-5.78,5.59-6.39Z"/>
  <path class="st0" d="M211.86,68.8c7.31,2.53,18.41,2.95,25.25,5.82,15.66,6.59-8.35,24.67-12.57,31.65-.11,8.44,1.23,16.93,1.94,25.35-3.8,18.48-23.98.12-34.53-1.71l-23.67,10.01c-17.79.8-6.48-23.14-8.42-33.66-3.53-5.89-18.01-17.59-17.85-24.12.08-3.1,2.36-6.44,5.26-7.55,7.24-2.76,17.69-3.23,25.27-5.81l13.67-22.68c13.52-9.92,18.89,15.04,25.66,22.68ZM192.93,68.25c-.92-.13-.96-.27-1.54.47-2.76,3.53-5.15,11.47-8.96,14.13-3.55,2.47-12.02,3.04-16.43,4.16,1.96,5.44,9.99,9.86,10.93,15.73.67,4.16-1.48,11.28-1.2,15.76.6.69,13.52-5.93,16.1-6.05,4.88-.23,11.73,5.42,16.83,6.05.52-.6-1.61-13.21-1.2-15.76.94-5.87,8.97-10.3,10.93-15.73-4.52-1.32-12.71-1.57-16.44-4.16-3.29-2.29-7.09-10.82-9.02-14.59Z"/>
  <path class="st0" d="M170.32,246.21c4.21-.49,8.09-.23,12.16.9,2.84.79,7.38,4,9.4,4.13,2.12.14,10.17-4.68,15-5.15,33.38-3.23,44.92,35.9,26.35,60.15-5.75,7.51-25.33,22.87-33.62,28.56-4.73,3.24-6.62,4.87-12.15,1.81-6.5-3.6-31.07-23.77-35.67-29.51-17.02-21.19-11.52-57.41,18.53-60.9ZM171.81,262.69c-8.77,1.08-13.82,9.83-13.29,18.17,1.19,18.68,20.37,26.2,32.19,37.52l2.44.26c12.3-11.29,31.96-19.36,32.76-38.49.5-11.81-10.05-21.08-21.51-16.29-4.57,1.91-6.88,7.82-12.51,7.6-6.92-.26-8.59-10.18-20.07-8.77Z"/>
  <path class="st1" d="M192.93,68.25c1.93,3.77,5.73,12.3,9.02,14.59,3.72,2.59,11.92,2.84,16.44,4.16-1.96,5.43-9.99,9.86-10.93,15.73-.41,2.55,1.72,15.17,1.2,15.76-5.1-.63-11.95-6.28-16.83-6.05-2.58.12-15.5,6.73-16.1,6.05-.28-4.48,1.87-11.6,1.2-15.76-.94-5.87-8.97-10.3-10.93-15.73,4.42-1.12,12.88-1.69,16.43-4.16,3.82-2.66,6.21-10.6,8.96-14.13.57-.73.62-.59,1.54-.47Z"/>
  <path class="st1" d="M171.81,262.69c11.48-1.41,13.16,8.51,20.07,8.77,5.63.21,7.94-5.69,12.51-7.6,11.46-4.78,22.01,4.48,21.51,16.29-.8,19.13-20.46,27.21-32.76,38.49l-2.44-.26c-11.82-11.31-31-18.83-32.19-37.52-.53-8.34,4.52-17.09,13.29-18.17Z"/>
</svg>