<?xml version="1.0" encoding="UTF-8"?>
<svg id="Layer_2" data-name="Layer 2" xmlns="http://www.w3.org/2000/svg" viewBox="0 0 255.86 256.24">
  <defs>
    <style>
      .cls-1 {
        fill: #7c7c7c;
        opacity: .7;
      }
    </style>
  </defs>
  <g id="Layer_1-2" data-name="Layer 1">
    <path class="cls-1" d="M165.54,90.08h56.25c4.66,0,11.04,2.46,14.81,5.19,12.13,8.75,14.28,24.34,6.44,36.8,17.58,9.8,16.6,34.74.05,45.26,9.29,13.23,3.91,31.18-10.01,38.55,9.78,16.78-.69,37.74-19.85,40.14-37.24-.57-74.58,2.6-111.28-4.6-11.31-2.22-22.37-5.5-33.36-8.89l-.06-136.7c.23-1.2,9.95-8.23,11.74-9.76,8.47-7.24,17.28-15.61,23.97-24.53,12.81-17.07,15.87-39.23,25.2-57.8,6.57-13.08,22.03-18.26,34.34-9.16,11.02,8.14,9.75,32.01,8.75,44.25-1.13,13.86-4.18,27.69-7,41.25Z"/>
    <path class="cls-1" d="M53.54,112.58v125.75l-.75.75H6.79c-2.08,0-6.12-3.3-6.41-5.59L.03,119.83c-.47-2.3,3.95-7.25,5.75-7.25h47.75Z"/>
  </g>
</svg>