<?xml version="1.0" encoding="UTF-8"?>
<svg id="Layer_2" data-name="Layer 2" xmlns="http://www.w3.org/2000/svg" viewBox="0 0 270.72 270.37">
  <defs>
    <style>
      .cls-1 {
        fill: #8e8e8e;
      }
    </style>
  </defs>
  <g id="Layer_1-2" data-name="Layer 1">
    <g id="u3mgim.tif">
      <path class="cls-1" d="M126.77.26c107.34-6.52,179.68,109.19,125.57,202.83-51.55,89.21-180.86,89.77-233.38,1.21C-32.52,117.53,26.63,6.34,126.77.26ZM98.96,87.16c-17.84,2.83-14.45,31.09,4.63,28.78s15.04-31.9-4.63-28.78ZM166.57,87.16c-17.84,2.83-14.45,31.09,4.63,28.78s15.04-31.9-4.63-28.78ZM85.08,164.43c-10.85,2.83-10.05,17.46,1.06,19.17h98.4c11.73-1.65,11.58-17.61,0-19.32l-99.46.15Z"/>
    </g>
  </g>
</svg>