<?xml version="1.0" encoding="UTF-8"?>
<svg id="Layer_1" xmlns="http://www.w3.org/2000/svg" version="1.1" viewBox="0 0 384 384">
  <!-- Generator: Adobe Illustrator 29.3.1, SVG Export Plug-In . SVG Version: 2.1.0 Build 151)  -->
  <defs>
    <style>
      .st0 {
        fill: #433bff;
      }

      .st1 {
        fill: #020202;
      }

      .st2 {
        fill: #fdfdfd;
      }
    </style>
  </defs>
  <path class="st1" d="M.35,281.84c1.71-4.45,2.35-9.12,3.93-13.66,7.92-22.67,29.04-40.58,52.8-44.51,14.68-2.43,30.21-1.4,44.74-3.92.6-.86.62-19.68-.04-21.01-.5-1.01-7.52-5.94-9.02-7.45-19.28-19.43-20.43-43.21-19.05-69.27-.45-2.38-5.33-2.76-6.42-7.8-2.79-12.87,1.5-35.58,7.27-47.48C110.08-6.52,222.68,23.76,214.46,111.58c-.7,7.45-5.81,8.19-6.03,9.11-1.05,4.31.31,15.44.04,20.84-.91,18.92-6.06,35.67-19.47,49.39-1.43,1.47-9,6.88-9,7.46v22.08l28.44,1.5c-.06,5.48.03,10.99,0,16.47-11.34.15-22.64-1.34-33.95-2.03l-29.4,23.64c-2.56,1.32-6.19,1.33-8.78,0l-29.4-23.64-41.05,2.79c-22.77.15-49.04,24.57-49.04,47.52v64h191.63c.15,6.91-1.35,12.07,5.24,16.47-68.24.04-136.5-.06-204.75.03-4.13.15-6.32-2.28-8.58-5.27v-80.09ZM197.96,104.44c1.16-24.24-11.62-47.81-34.16-57.53-34.29-14.79-73.6,6.31-79.41,43.14-.31,1.99-1.98,14.39.17,14.39h22.46c5.13,0,11.59-5.89,13.32-10.64,1.99-5.45.48-14.4,9.82-14.02,8.09.33,7.13,9,8.63,13.85s8.32,10.81,13.15,10.81h46.04ZM191.22,120.91h-40.8c-1.82,0-9.36-2.63-11.36-3.61-3.25-1.6-6.28-4.38-8.96-6.79-3.97,2.03-6.55,5.1-10.73,7.05-1.93.9-8.4,3.35-10.13,3.35h-19.09v30.32c0,6.48,7.3,20.01,11.59,25.08,22.67,26.8,65.18,23.37,82.85-6.99,2.11-3.63,6.61-14.24,6.61-18.09v-30.32ZM162.78,207.74c-14.62,4.14-29.56,4.13-44.16,0v16.09c0,1.43,19.46,15.97,22.08,18.09,7.87-4.93,14.18-12.32,22.08-16.96v-17.22Z"/>
  <path class="st0" d="M213.68,367.17c-6.59-4.39-5.09-9.56-5.24-16.47-.82-37.13-.18-75.09,0-112.28.03-5.48-.06-10.99,0-16.47.07-7.31-2.88-26.17,6.41-27.65l161.66-.06c4.25.43,7.19,4.36,7.12,8.6l-.38,158.37c-1.01,2.86-2.76,4.61-5.61,5.61-54.58.67-109.32.32-163.95.35ZM248.11,210.73h-23.2v16.47h23.2v-16.47ZM287.79,210.73h-23.2v16.47h23.2v-16.47ZM327.46,210.73h-23.2v16.47h23.2v-16.47ZM367.13,210.73h-23.2v16.47h23.2v-16.47ZM367.13,243.67h-142.22v74.11h142.22v-74.11ZM248.11,334.24h-23.2v16.47h23.2v-16.47ZM287.79,334.24h-23.2v16.47h23.2v-16.47ZM327.46,334.24h-23.2v16.47h23.2v-16.47ZM367.13,334.24h-23.2v16.47h23.2v-16.47Z"/>
  <path class="st1" d="M347.67,52.79h13.85c9.91,0,20.58,12.03,21.89,21.53,1.17,8.48-2.08,34.49-3.64,43.88-1.97,11.79-10.02,21.08-22.18,22.73-10.94,1.48-43.34,1.19-53.81-1.19-1.27-.29-3.56-1.64-4.27-1.5-.75.15-1.54,1.57-2.53,1.96-3.95,1.56-33.22,1.54-38.75.91-4.99-.57-8.57-4.21-8.64-9.33,1.76-24.33-2.24-51.7,0-75.66.47-5.06,2.61-8.51,7.95-9.26,9.97-1.41,22.49,1.01,32.75-.18,7.31-10.46,9.69-23.76,23.3-28.35,22.05-7.45,40.76,12.99,34.09,34.46ZM320.52,33.5c-7.71,1.58-14.23,20.87-18.34,27.32v58.81c.39,1.38,2.73,2.89,4.02,3.45,5.77,2.49,39.33,2.29,47.12,1.6,5.94-.52,8.84-2.82,10.01-8.7,1.75-8.79,3.52-26.82,3.82-35.89.64-19.29-28.4-5.83-35.9-12.74-6.73-6.21,3.63-20.28.33-28.03-1.76-4.13-6.66-6.72-11.05-5.82ZM285.54,63.27h-19.46v61.38h19.46v-61.38Z"/>
  <path class="st2" d="M208.44,238.43c-.18,37.19-.82,75.15,0,112.28H16.81v-64c0-22.95,26.27-47.37,49.04-47.52l41.05-2.79,29.4,23.64c2.59,1.33,6.21,1.32,8.78,0l29.4-23.64c11.31.7,22.61,2.19,33.95,2.03Z"/>
  <path class="st2" d="M191.22,120.91v30.32c0,3.85-4.5,14.46-6.61,18.09-17.67,30.36-60.18,33.8-82.85,6.99-4.29-5.07-11.59-18.6-11.59-25.08v-30.32h19.09c1.72,0,8.2-2.45,10.13-3.35,4.18-1.95,6.76-5.03,10.73-7.05,2.68,2.41,5.7,5.19,8.96,6.79,2,.98,9.54,3.61,11.36,3.61h40.8Z"/>
  <path class="st2" d="M197.96,104.44h-46.04c-4.83,0-11.71-6.17-13.15-10.81s-.54-13.52-8.63-13.85c-9.34-.38-7.83,8.57-9.82,14.02-1.73,4.74-8.19,10.64-13.32,10.64h-22.46c-2.16,0-.49-12.4-.17-14.39,5.81-36.83,45.12-57.92,79.41-43.14,22.55,9.72,35.32,33.29,34.16,57.53Z"/>
  <path class="st2" d="M162.78,207.74v17.22c-7.9,4.64-14.22,12.03-22.08,16.96-2.62-2.11-22.08-16.66-22.08-18.09v-16.09c14.61,4.13,29.54,4.14,44.16,0Z"/>
  <rect class="st2" x="224.91" y="243.67" width="142.22" height="74.11"/>
  <rect class="st2" x="224.91" y="210.73" width="23.2" height="16.47"/>
  <rect class="st2" x="264.58" y="210.73" width="23.2" height="16.47"/>
  <rect class="st2" x="304.25" y="210.73" width="23.2" height="16.47"/>
  <rect class="st2" x="343.93" y="210.73" width="23.2" height="16.47"/>
  <rect class="st2" x="224.91" y="334.24" width="23.2" height="16.47"/>
  <rect class="st2" x="264.58" y="334.24" width="23.2" height="16.47"/>
  <rect class="st2" x="304.25" y="334.24" width="23.2" height="16.47"/>
  <rect class="st2" x="343.93" y="334.24" width="23.2" height="16.47"/>
  <path class="st2" d="M320.52,33.5c4.39-.9,9.29,1.69,11.05,5.82,3.3,7.75-7.06,21.82-.33,28.03,7.5,6.91,36.54-6.54,35.9,12.74-.3,9.07-2.07,27.1-3.82,35.89-1.17,5.89-4.07,8.18-10.01,8.7-7.79.69-41.35.89-47.12-1.6-1.29-.56-3.63-2.07-4.03-3.45v-58.81c4.12-6.45,10.65-25.74,18.36-27.32Z"/>
  <rect class="st2" x="266.08" y="63.27" width="19.46" height="61.38"/>
</svg>