<?xml version="1.0" encoding="UTF-8"?>
<svg id="Layer_1" xmlns="http://www.w3.org/2000/svg" version="1.1" viewBox="0 0 384 384">
  <!-- Generator: Adobe Illustrator 29.3.1, SVG Export Plug-In . SVG Version: 2.1.0 Build 151)  -->
  <defs>
    <style>
      .st0 {
        fill: #433bff;
      }

      .st1 {
        fill: #020202;
      }

      .st2 {
        fill: #fdfdfd;
      }
    </style>
  </defs>
  <path class="st1" d="M291.81,0c10.47,2.22,19.53,8.69,23.38,18.98.45,1.2,2.11,6.83,2.11,7.64v19.88h22.11c3.79,0,11.04,1.85,14.8,3.19,15.82,5.64,26.13,19.74,29.8,35.81v51.75c-3.55,14.34-11.61,27.07-25.2,33.66-2.6,1.26-11.7,4.59-14.15,4.59h-27.36c21.34,70.59-8.4,146.48-70.51,184.82l-12.68,7.18h121.79c3.37,0,8.87-5.3,10.26-8.49,4.32-9.94-2.31-18.76-12.59-19.93-8.39-.96-12.02,1.08-20.3-3.69-19.26-11.09-16.35-40.78,4.28-48.51,6.54-2.45,32.08-2.95,39.29-1.84,3.77.58,5.3,3.07,7.17,5.95v4.5c-1.44,2.57-3.17,5.44-6.41,5.96-8.72,1.38-20.77-.8-29.97.01-14.38,1.27-13.66,19.35-2.15,20.97,2.89.41,6.02-.24,8.92.08,15.64,1.71,25.24,10.51,29.62,25.49v11.25c-4.01,12.84-12.73,22.13-26.23,24.75h-209.86c-9.3-1.9-18.68-3.06-27.89-5.46-54.79-14.32-99.98-59.52-114.3-114.37-2.34-8.98-3.41-18.14-5.46-27.16.6-9.73-.81-20.39,0-30,.43-5.06,2.24-13.55,3.35-18.78C21.25,105.3,101.04,49.16,185.38,61.5c-.93-5.94,2.22-9.51,7.94-10.44,18.19,1,38.19-1.56,56.17-.09,1.68.14,3.56,1.56,4.36,1.41,3.44-.64,9.48-14.96,9.48-18.26V6.38c0-2.34,3.94-5.48,6-6.38h22.48ZM258.08,159h84.32c9.79,0,21.13-11.42,23.83-20.4,2.45-8.11,2.05-37.99,1.3-47.5-.86-10.87-6.97-20.55-17-24.99-11.6-5.14-28.46-.93-41.12-2.35-3.72-.42-7.93-2.38-8.57-6.42-2.72-17.18,8.78-44.32-21.03-40.83v19.88c0,1.63-1.97,8.13-2.65,10.09-3.58,10.35-10.69,17.76-19.08,24.41v88.12ZM241.6,159v-90.38c0-.08-1.04-1.12-1.12-1.12h-38.6v91.5h39.72ZM185.38,102c-.03-5.94.97-16.97,0-22.13-.16-.86-.24-1.53-1.25-1.75C102.81,65.41,25.91,124.86,17.5,206.63c-11.61,112.86,105.03,195.88,207.77,146.41,65.3-31.45,98.07-107.73,74.87-177.09-.63-.88-17.51-.43-20.32-.45-7.23-.05-14.5.02-21.74,0-8.48-.03-17,.04-25.48,0-7.48-.03-15,.1-22.48,0-8.79-.11-23.77,3.37-24.73-8.25-.82-9.87.61-20.77,0-30.75.08-1.12.11-2.65,0-3.75-.04-10.24.06-20.51,0-30.75Z"/>
  <path class="st2" d="M185.38,102c-3.7-1.33-6.67-3.61-10.53-4.84-33.77-10.81-63.87,23.75-48.07,55.61,10.76,21.69,38.85,27.55,58.6,14.49.96,11.62,15.94,8.14,24.73,8.25-15.52,30.96,10.36,66.12,44.69,57.85,25.59-6.16,36.76-34.9,25.01-57.85,2.81.02,19.69-.43,20.32.45,23.19,69.35-9.57,145.64-74.87,177.09C122.53,402.51,5.89,319.49,17.5,206.63,25.91,124.86,102.81,65.41,184.13,78.13c1.01.22,1.09.89,1.25,1.75.97,5.16-.04,16.18,0,22.13ZM107.17,166.76c-37.77-37.84-94.22,22.38-54.46,57.87,38.03,33.95,90.46-21.81,54.46-57.87ZM159.73,192.96c-25.09,2.36-36.07,34.07-16.71,50.81,22.96,19.86,57.02-4.12,46.01-32.54-4.45-11.49-17.01-19.42-29.3-18.27ZM107.28,252.97c-51.24,4.73-44.94,82.82,6.52,79.27,51.99-3.59,46-84.11-6.52-79.27ZM209.96,252.97c-57.16,5.31-40.46,94.83,15.73,77.24,44.22-13.84,30.59-81.55-15.73-77.24Z"/>
  <path class="st2" d="M258.08,159v-88.12c8.39-6.65,15.5-14.06,19.08-24.41.68-1.97,2.65-8.46,2.65-10.09v-19.88c29.81-3.48,18.31,23.65,21.03,40.83.64,4.04,4.85,6,8.57,6.42,12.65,1.42,29.52-2.78,41.12,2.35,10.02,4.44,16.14,14.12,17,24.99.75,9.51,1.14,39.39-1.3,47.5-2.71,8.98-14.05,20.4-23.83,20.4h-84.32Z"/>
  <path class="st2" d="M241.6,159h-39.72v-91.5h38.6c.08,0,1.12,1.05,1.12,1.12v90.38Z"/>
  <path class="st0" d="M185.38,102c.06,10.24-.04,20.51,0,30.75-2.93-29.01-46.43-26.84-46.53,1.88-.1,29.31,44.32,30.98,46.53,1.87.61,9.98-.82,20.88,0,30.75-19.75,13.06-47.84,7.21-58.6-14.49-15.8-31.86,14.31-66.41,48.07-55.61,3.86,1.23,6.83,3.51,10.53,4.84Z"/>
  <path class="st0" d="M232.6,175.5c-27.34,18.83,3.39,58.02,27.68,37.07,11.46-9.89,9.73-28.33-2.19-37.07,7.23.02,14.5-.05,21.74,0,11.75,22.94.58,51.68-25.01,57.85-34.33,8.27-60.21-26.89-44.69-57.85,7.48.1,15-.03,22.48,0Z"/>
  <path class="st2" d="M185.38,132.75c.11,1.1.08,2.63,0,3.75-2.21,29.11-46.64,27.44-46.53-1.87.1-28.72,43.61-30.89,46.53-1.88Z"/>
  <path class="st2" d="M258.08,175.5c11.93,8.74,13.66,27.18,2.19,37.07-24.28,20.95-55.01-18.24-27.68-37.07,8.48.04,17-.03,25.48,0Z"/>
  <path class="st0" d="M107.17,166.76c36,36.07-16.43,91.82-54.46,57.87-39.76-35.49,16.68-95.71,54.46-57.87ZM76.53,171.95c-32.79,3.96-22.3,55.85,10.33,44.83,25.95-8.76,16.54-48.08-10.33-44.83Z"/>
  <path class="st0" d="M107.28,252.97c52.52-4.85,58.5,75.67,6.52,79.27-51.46,3.56-57.76-74.54-6.52-79.27ZM108.78,269.45c-29.28,2.68-26.43,47.18,2.79,46.35,31.19-.89,28.38-49.2-2.79-46.35Z"/>
  <path class="st0" d="M209.96,252.97c46.32-4.31,59.95,63.4,15.73,77.24-56.2,17.59-72.89-71.93-15.73-77.24ZM211.46,269.45c-33.97,3.11-23.07,56.24,9.68,44.96,25.28-8.71,16.86-47.38-9.68-44.96Z"/>
  <path class="st1" d="M159.73,192.96c12.29-1.16,24.85,6.77,29.3,18.27,11.01,28.42-23.05,52.4-46.01,32.54-19.36-16.74-8.38-48.45,16.71-50.81ZM161.24,209.41c-19.28,1.54-11.92,32.35,6.45,23.76,12.31-5.75,6.9-24.83-6.45-23.76Z"/>
  <path class="st2" d="M76.53,171.95c26.87-3.25,36.28,36.07,10.33,44.83-32.63,11.02-43.12-40.87-10.33-44.83Z"/>
  <path class="st2" d="M108.78,269.45c31.17-2.85,33.98,45.46,2.79,46.35-29.21.83-32.06-43.67-2.79-46.35Z"/>
  <path class="st2" d="M211.46,269.45c26.54-2.43,34.96,36.24,9.68,44.96-32.75,11.29-43.66-41.85-9.68-44.96Z"/>
  <path class="st2" d="M161.24,209.41c13.35-1.07,18.76,18.01,6.45,23.76-18.37,8.58-25.72-22.22-6.45-23.76Z"/>
</svg>