<?xml version="1.0" encoding="UTF-8"?>
<svg id="Layer_1" data-name="Layer 1" xmlns="http://www.w3.org/2000/svg" viewBox="0 0 384 384">
  <defs>
    <style>
      .cls-1 {
        fill: #433bff;
      }
    </style>
  </defs>
  <path class="cls-1" d="M204,0l23.38,3.24c51.74,9.63,95.9,41.02,124.71,84.51,2.08-10-1.19-25.07,7.93-31.81,9.02-6.67,20.61-1.55,23.93,8.56-.11,2.73.15,5.52,0,8.25-1.45,26.06-6.15,52.67-7.68,78.95-4.4,11.27-13.65,13.82-24.06,7.92-21.25-12.05-42.02-32.65-63.43-45.3-15.9-11.33-1.86-34.92,15.47-25.97,2.38,1.23,20.99,16.06,21.96,15.15-19.09-29.43-48.07-52.95-81.34-64.51-68.53-23.81-143.35,1.03-184.26,60.22-4.49,6.5-7.76,14.25-11.96,20.29-8.39,12.08-27.31,5.72-27.64-8.16-.2-8.66,17.37-33.04,23.29-40.45C76.6,30.48,128.12,3.04,180,0h23.99Z"/>
  <path class="cls-1" d="M.05,311.25c1.45-26.06,6.15-52.67,7.68-78.95,4.4-11.27,13.65-13.82,24.06-7.92,21.25,12.05,42.02,32.65,63.43,45.3,15.82,11.35,1.86,34.94-15.46,25.97-2.39-1.24-20.99-16.06-21.97-15.15,19.09,29.4,48.09,52.96,81.34,64.51,68.52,23.81,143.36-1.05,184.26-60.22,4.49-6.5,7.76-14.25,11.96-20.29,8.39-12.08,27.31-5.72,27.64,8.16.2,8.64-17.37,33.05-23.29,40.45-32.74,40.9-84.01,67.83-136.44,70.9h-23.24l-24.01-3.36c-51.33-9.72-95.51-41.17-124.08-84.39-2.08,10,1.19,25.07-7.93,31.81-9.02,6.67-20.61,1.55-23.93-8.56.11-2.73-.15-5.52,0-8.25Z"/>
</svg>