<?xml version="1.0" encoding="UTF-8"?>
<svg id="Layer_1" data-name="Layer 1" xmlns="http://www.w3.org/2000/svg" viewBox="0 0 48.44 47.81">
  <defs>
    <style>
      .cls-1 {
        fill: #fff;
      }
    </style>
  </defs>
  <path class="cls-1" d="M0,18.33C1.09,2.74,19.41-5.67,31.83,4.34c7.48,6.03,9.25,15.88,5.04,24.43-.16.33-.71.99-.62,1.33l11.29,11.33c2.79,3.57-1.48,8.22-5.28,5.66l-11.56-11.42c-7.11,5.01-16.72,4.57-23.46-.87C3.12,31.47.33,26.18,0,20.89v-2.55ZM18.15,6.44c-5.98.51-10.97,5.59-11.7,11.48-1.34,10.72,10.12,18.51,19.57,13.23,12.33-6.88,6.7-25.94-7.87-24.71Z"/>
</svg>