<?xml version="1.0" encoding="UTF-8"?>
<svg xmlns="http://www.w3.org/2000/svg" xmlns:xlink="http://www.w3.org/1999/xlink" version="1.1" viewBox="0 0 3710 3710">
  <!-- Generator: Adobe Illustrator 29.3.1, SVG Export Plug-In . SVG Version: 2.1.0 Build 151)  -->
  <defs>
    <style>
      .st0 {
        fill: #91b3fa;
      }

      .st1 {
        fill: url(#linear-gradient2);
      }

      .st2 {
        fill: url(#linear-gradient1);
      }

      .st3 {
        fill: url(#linear-gradient9);
      }

      .st4 {
        fill: url(#linear-gradient3);
      }

      .st5 {
        fill: url(#linear-gradient6);
      }

      .st6 {
        fill: url(#linear-gradient8);
      }

      .st7 {
        fill: url(#linear-gradient7);
      }

      .st8 {
        fill: url(#linear-gradient5);
      }

      .st9 {
        fill: url(#linear-gradient4);
      }

      .st10 {
        fill: url(#linear-gradient31);
      }

      .st11 {
        fill: url(#linear-gradient30);
      }

      .st12 {
        fill: url(#linear-gradient38);
      }

      .st13 {
        fill: url(#linear-gradient32);
      }

      .st14 {
        fill: url(#linear-gradient39);
      }

      .st15 {
        fill: url(#linear-gradient34);
      }

      .st16 {
        fill: url(#linear-gradient37);
      }

      .st17 {
        fill: url(#linear-gradient35);
      }

      .st18 {
        fill: url(#linear-gradient33);
      }

      .st19 {
        fill: url(#linear-gradient36);
      }

      .st20 {
        fill: url(#linear-gradient40);
      }

      .st21 {
        fill: url(#linear-gradient41);
      }

      .st22 {
        fill: url(#linear-gradient42);
      }

      .st23 {
        fill: url(#linear-gradient46);
      }

      .st24 {
        fill: url(#linear-gradient48);
      }

      .st25 {
        fill: url(#linear-gradient43);
      }

      .st26 {
        fill: url(#linear-gradient44);
      }

      .st27 {
        fill: url(#linear-gradient47);
      }

      .st28 {
        fill: url(#linear-gradient45);
      }

      .st29 {
        fill: url(#linear-gradient49);
      }

      .st30 {
        fill: url(#linear-gradient50);
      }

      .st31 {
        fill: url(#linear-gradient51);
      }

      .st32 {
        fill: url(#linear-gradient52);
      }

      .st33 {
        fill: url(#linear-gradient53);
      }

      .st34 {
        fill: url(#linear-gradient54);
      }

      .st35 {
        fill: url(#linear-gradient55);
      }

      .st36 {
        fill: url(#linear-gradient28);
      }

      .st37 {
        fill: url(#linear-gradient29);
      }

      .st38 {
        fill: url(#linear-gradient18);
      }

      .st39 {
        fill: url(#linear-gradient13);
      }

      .st40 {
        fill: url(#linear-gradient12);
      }

      .st41 {
        fill: url(#linear-gradient15);
      }

      .st42 {
        fill: url(#linear-gradient16);
      }

      .st43 {
        fill: url(#linear-gradient11);
      }

      .st44 {
        fill: url(#linear-gradient10);
      }

      .st45 {
        fill: url(#linear-gradient17);
      }

      .st46 {
        fill: url(#linear-gradient14);
      }

      .st47 {
        fill: url(#linear-gradient19);
      }

      .st48 {
        fill: url(#linear-gradient23);
      }

      .st49 {
        fill: url(#linear-gradient22);
      }

      .st50 {
        fill: url(#linear-gradient24);
      }

      .st51 {
        fill: url(#linear-gradient25);
      }

      .st52 {
        fill: url(#linear-gradient21);
      }

      .st53 {
        fill: url(#linear-gradient20);
      }

      .st54 {
        fill: url(#linear-gradient27);
      }

      .st55 {
        fill: url(#linear-gradient26);
      }

      .st56 {
        mix-blend-mode: overlay;
      }

      .st56, .st57, .st58 {
        fill: #fff;
      }

      .st59 {
        fill: #bdd0fb;
      }

      .st60 {
        fill: url(#linear-gradient);
      }

      .st57 {
        opacity: .57;
      }

      .st61 {
        isolation: isolate;
      }

      .st62 {
        fill: #7d97f4;
      }

      .st63 {
        opacity: .52;
      }

      .st64 {
        opacity: .5;
      }

      .st65 {
        opacity: .3;
      }
    </style>
    <linearGradient id="linear-gradient" x1="3573.92" y1="4029.53" x2="1127.39" y2="991.09" gradientUnits="userSpaceOnUse">
      <stop offset="0" stop-color="#dae3fe"/>
      <stop offset="1" stop-color="#e9effd"/>
    </linearGradient>
    <linearGradient id="linear-gradient1" x1="1058.89" y1="1857.84" x2="1269.37" y2="1857.84" xlink:href="#linear-gradient"/>
    <linearGradient id="linear-gradient2" x1="824.83" y1="1857.82" x2="1034.87" y2="1857.82" xlink:href="#linear-gradient"/>
    <linearGradient id="linear-gradient3" x1="591" y1="1857.79" x2="800.6" y2="1857.79" xlink:href="#linear-gradient"/>
    <linearGradient id="linear-gradient4" x1="1056.28" y1="2010.97" x2="1266.39" y2="2010.97" xlink:href="#linear-gradient"/>
    <linearGradient id="linear-gradient5" x1="822.63" y1="2010.87" x2="1032.3" y2="2010.87" xlink:href="#linear-gradient"/>
    <linearGradient id="linear-gradient6" x1="589.21" y1="2010.78" x2="798.44" y2="2010.78" xlink:href="#linear-gradient"/>
    <linearGradient id="linear-gradient7" x1="1053.68" y1="2162.78" x2="1263.42" y2="2162.78" xlink:href="#linear-gradient"/>
    <linearGradient id="linear-gradient8" x1="820.43" y1="2162.6" x2="1029.74" y2="2162.6" xlink:href="#linear-gradient"/>
    <linearGradient id="linear-gradient9" x1="587.42" y1="2162.43" x2="796.29" y2="2162.43" xlink:href="#linear-gradient"/>
    <linearGradient id="linear-gradient10" x1="1051.09" y1="2314.06" x2="1260.46" y2="2314.06" xlink:href="#linear-gradient"/>
    <linearGradient id="linear-gradient11" x1="818.25" y1="2313.81" x2="1027.18" y2="2313.81" xlink:href="#linear-gradient"/>
    <linearGradient id="linear-gradient12" x1="585.63" y1="2313.56" x2="794.14" y2="2313.56" xlink:href="#linear-gradient"/>
    <linearGradient id="linear-gradient13" x1="1048.51" y1="2464.81" x2="1257.51" y2="2464.81" xlink:href="#linear-gradient"/>
    <linearGradient id="linear-gradient14" x1="816.07" y1="2464.49" x2="1024.64" y2="2464.49" xlink:href="#linear-gradient"/>
    <linearGradient id="linear-gradient15" x1="583.86" y1="2464.16" x2="792" y2="2464.16" xlink:href="#linear-gradient"/>
    <linearGradient id="linear-gradient16" x1="1045.93" y1="2615.05" x2="1254.57" y2="2615.05" xlink:href="#linear-gradient"/>
    <linearGradient id="linear-gradient17" x1="813.89" y1="2614.65" x2="1022.11" y2="2614.65" xlink:href="#linear-gradient"/>
    <linearGradient id="linear-gradient18" x1="582.09" y1="2614.25" x2="789.87" y2="2614.25" xlink:href="#linear-gradient"/>
    <linearGradient id="linear-gradient19" x1="1043.37" y1="2764.76" x2="1251.65" y2="2764.76" xlink:href="#linear-gradient"/>
    <linearGradient id="linear-gradient20" x1="811.73" y1="2764.29" x2="1019.58" y2="2764.29" xlink:href="#linear-gradient"/>
    <linearGradient id="linear-gradient21" x1="580.32" y1="2763.82" x2="787.74" y2="2763.82" xlink:href="#linear-gradient"/>
    <linearGradient id="linear-gradient22" x1="1040.81" y1="2913.97" x2="1248.73" y2="2913.97" xlink:href="#linear-gradient"/>
    <linearGradient id="linear-gradient23" x1="809.57" y1="2913.42" x2="1017.06" y2="2913.42" xlink:href="#linear-gradient"/>
    <linearGradient id="linear-gradient24" x1="578.56" y1="2912.88" x2="785.63" y2="2912.88" xlink:href="#linear-gradient"/>
    <linearGradient id="linear-gradient25" x1="1038.27" y1="3062.66" x2="1245.82" y2="3062.66" xlink:href="#linear-gradient"/>
    <linearGradient id="linear-gradient26" x1="807.42" y1="3062.04" x2="1014.55" y2="3062.04" xlink:href="#linear-gradient"/>
    <linearGradient id="linear-gradient27" x1="576.81" y1="3061.42" x2="783.52" y2="3061.42" xlink:href="#linear-gradient"/>
    <linearGradient id="linear-gradient28" x1="2741.29" y1="-790.18" x2="2137.18" y2="2733.77" gradientUnits="userSpaceOnUse">
      <stop offset="0" stop-color="#4042e2"/>
      <stop offset="1" stop-color="#4f52ff"/>
    </linearGradient>
    <linearGradient id="linear-gradient29" x1="1712" y1="2121.9" x2="2780.22" y2="2121.9" xlink:href="#linear-gradient28"/>
    <linearGradient id="linear-gradient30" x1="2329.3" y1="944.24" x2="2654.29" y2="194.26" gradientTransform="translate(1463.66 -1253.01) rotate(45)" gradientUnits="userSpaceOnUse">
      <stop offset="0" stop-color="#09005d"/>
      <stop offset="1" stop-color="#1a0f91"/>
    </linearGradient>
    <linearGradient id="linear-gradient31" x1="2358.84" y1="1430.09" x2="1627.45" y2="6499.4" gradientUnits="userSpaceOnUse">
      <stop offset="0" stop-color="#febbba"/>
      <stop offset="1" stop-color="#ff928e"/>
    </linearGradient>
    <linearGradient id="linear-gradient32" x1="2339.66" y1="1427.33" x2="1608.27" y2="6496.63" xlink:href="#linear-gradient31"/>
    <linearGradient id="linear-gradient33" x1="2381.42" y1="2006.62" x2="3453.61" y2="-125.15" gradientUnits="userSpaceOnUse">
      <stop offset="0" stop-color="#fe7062"/>
      <stop offset="1" stop-color="#ff928e"/>
    </linearGradient>
    <linearGradient id="linear-gradient34" x1="-1483.02" y1="3175.36" x2="-1364.41" y2="3175.36" gradientTransform="translate(2420.6)" xlink:href="#linear-gradient30"/>
    <linearGradient id="linear-gradient35" x1="-1450.03" y1="3040.34" x2="-1472.69" y2="3238.05" gradientTransform="translate(2420.6)" xlink:href="#linear-gradient31"/>
    <linearGradient id="linear-gradient36" x1="-1302.42" y1="3178.37" x2="-1131.69" y2="3178.37" gradientTransform="translate(2420.6)" xlink:href="#linear-gradient30"/>
    <linearGradient id="linear-gradient37" x1="-1158.21" y1="2928.46" x2="-1180.86" y2="3126.18" gradientTransform="translate(2123.7 65.77) rotate(-3.61)" xlink:href="#linear-gradient31"/>
    <linearGradient id="linear-gradient38" x1="-1281.69" y1="3226.86" x2="-1047.2" y2="2108.71" gradientTransform="translate(-160.96) rotate(-180) scale(1 -1)" xlink:href="#linear-gradient30"/>
    <linearGradient id="linear-gradient39" x1="1360.22" y1="1699.07" x2="842.09" y2="2270.68" xlink:href="#linear-gradient28"/>
    <linearGradient id="linear-gradient40" x1="1259.49" y1="1730.81" x2="504.21" y2="3117.07" xlink:href="#linear-gradient28"/>
    <linearGradient id="linear-gradient41" x1="-1359.65" y1="1887.96" x2="-1307.04" y2="1744.28" gradientTransform="translate(2420.6)" xlink:href="#linear-gradient31"/>
    <linearGradient id="linear-gradient42" x1="1106.48" y1="1424.83" x2="1082.03" y2="1611.51" xlink:href="#linear-gradient28"/>
    <linearGradient id="linear-gradient43" x1="1149.23" y1="1430.43" x2="1124.79" y2="1617.1" xlink:href="#linear-gradient28"/>
    <linearGradient id="linear-gradient44" x1="-1230.33" y1="1672.43" x2="-1543.83" y2="1922.12" gradientTransform="translate(2420.6)" xlink:href="#linear-gradient31"/>
    <linearGradient id="linear-gradient45" x1="-1351.36" y1="1590.29" x2="-1207.67" y2="1775.29" gradientTransform="translate(2420.6)" xlink:href="#linear-gradient30"/>
    <linearGradient id="linear-gradient46" x1="-1261.88" y1="1658.75" x2="-1416.17" y2="1776.8" gradientTransform="translate(2420.6)" xlink:href="#linear-gradient31"/>
    <linearGradient id="linear-gradient47" x1="-1684.83" y1="1736.74" x2="-1358.17" y2="2018.92" gradientTransform="translate(-160.96) rotate(-180) scale(1 -1)" xlink:href="#linear-gradient31"/>
    <linearGradient id="linear-gradient48" x1="-1691.64" y1="1763.05" x2="-1373.67" y2="2037.72" gradientTransform="translate(-160.96) rotate(-180) scale(1 -1)" xlink:href="#linear-gradient31"/>
    <linearGradient id="linear-gradient49" x1="-1696.92" y1="1750.74" x2="-1370.26" y2="2032.91" gradientTransform="translate(-160.96) rotate(-180) scale(1 -1)" xlink:href="#linear-gradient31"/>
    <linearGradient id="linear-gradient50" x1="527.5" y1="1846.21" x2="-61.15" y2="3081.1" gradientTransform="translate(-758.49 793.55) rotate(-62.63)" gradientUnits="userSpaceOnUse">
      <stop offset="0" stop-color="#e1473d"/>
      <stop offset="1" stop-color="#e9605a"/>
    </linearGradient>
    <linearGradient id="linear-gradient51" x1="4105.23" y1=".99" x2="3760.26" y2="687.37" gradientTransform="translate(-1955.44 2439.33) rotate(-15.16)" xlink:href="#linear-gradient33"/>
    <linearGradient id="linear-gradient52" x1="81.22" y1="2178.5" x2="590.69" y2="3373.43" gradientTransform="translate(-758.49 793.55) rotate(-62.63)" gradientUnits="userSpaceOnUse">
      <stop offset="0" stop-color="#ff9085"/>
      <stop offset="1" stop-color="#fb6fbb"/>
    </linearGradient>
    <linearGradient id="linear-gradient53" x1="1802.69" y1="1673.7" x2="2116.04" y2="877.01" xlink:href="#linear-gradient33"/>
    <linearGradient id="linear-gradient54" x1="1975.29" y1="826.09" x2="1921.96" y2="929.43" xlink:href="#linear-gradient33"/>
    <linearGradient id="linear-gradient55" x1="-820.42" y1="4045.73" x2="-1214.69" y2="4730.8" gradientTransform="translate(817.23 -2113.76) rotate(-18.59)" xlink:href="#linear-gradient31"/>
  </defs>
  <g class="st61">
    <g id="Illustration">
      <g>
        <path class="st60" d="M2910.68,2824.46c-56.73,58.79-110.42,96.7-152.83,126.65-498.55,352.09-1088.47,249.46-1213.85,224.39-185.14-37.01-543.01-108.55-801.74-408.03-391.44-453.09-330.49-1166.92-26.86-1638.13,55.54-86.19,348.91-564.58,945.18-641.3,360.86-46.43,781.5,47.21,1086.12,298.41,639.42,527.29,593.9,1592.5,163.97,2038Z"/>
        <g>
          <g>
            <path class="st59" d="M996.65,1243.76c.26-13.32,11.45-24.04,25.17-24.04h832.26c13.91,0,28.68,11.05,28.68,24.56v1886.35c0,10.08-5.88,19.75-13.23,26.86-7.35,7.12-18.19,11.1-28.57,11.08l-841.37-2.23c-10.47-.03-20.71-4.14-28.03-11.4-7.32-7.27-11.45-17.11-11.25-27.28l36.34-1883.89Z"/>
            <g class="st63">
              <polygon class="st56" points="1474.61 1353.4 1746.86 1352.49 1746.76 1319.4 1474.81 1320.24 1474.61 1353.4"/>
              <polygon class="st56" points="1473.86 1475.25 1747.23 1474.04 1747.13 1440.69 1474.07 1441.82 1473.86 1475.25"/>
              <polygon class="st56" points="1473.11 1598.11 1747.61 1596.6 1747.51 1562.97 1473.32 1564.4 1473.11 1598.11"/>
              <polygon class="st56" points="1472.35 1721.99 1747.99 1720.17 1747.88 1686.26 1472.56 1688 1472.35 1721.99"/>
              <polygon class="st56" points="1471.59 1846.9 1748.37 1844.77 1748.26 1810.58 1471.8 1812.63 1471.59 1846.9"/>
              <polygon class="st56" points="1470.04 2099.87 1749.14 2097.1 1749.04 2062.34 1470.25 2065.02 1470.04 2099.87"/>
              <polygon class="st56" points="1467.66 2487.4 1750.33 2483.64 1750.22 2447.98 1467.88 2451.65 1467.66 2487.4"/>
              <polygon class="st56" points="1470.81 1972.86 1748.76 1970.41 1748.65 1935.93 1471.02 1938.29 1470.81 1972.86"/>
              <polygon class="st56" points="1469.25 2227.96 1749.54 2224.87 1749.43 2189.81 1469.47 2192.81 1469.25 2227.96"/>
              <polygon class="st56" points="1468.46 2357.13 1749.93 2353.7 1749.82 2318.35 1468.68 2321.69 1468.46 2357.13"/>
              <polygon class="st56" points="1466.86 2618.79 1750.73 2614.68 1750.62 2578.72 1467.08 2582.73 1466.86 2618.79"/>
              <polygon class="st56" points="1466.05 2751.3 1751.14 2746.84 1751.03 2710.57 1466.27 2714.93 1466.05 2751.3"/>
              <polygon class="st56" points="1465.23 2884.96 1751.55 2880.14 1751.44 2843.56 1465.45 2848.28 1465.23 2884.96"/>
              <polygon class="st56" points="1464.4 3019.77 1751.96 3014.59 1751.85 2977.69 1464.63 2982.77 1464.4 3019.77"/>
              <polygon class="st56" points="1117.67 1354.6 1391.63 1353.68 1391.92 1320.49 1118.27 1321.33 1117.67 1354.6"/>
              <polygon class="st56" points="1115.44 1476.84 1390.54 1475.62 1390.84 1442.16 1116.05 1443.3 1115.44 1476.84"/>
              <polygon class="st56" points="1113.2 1600.09 1389.44 1598.57 1389.74 1564.83 1113.82 1566.27 1113.2 1600.09"/>
              <polygon class="st56" points="1110.94 1724.38 1388.33 1722.55 1388.64 1688.53 1111.56 1690.27 1110.94 1724.38"/>
              <polygon class="st56" points="1108.67 1849.7 1387.22 1847.55 1387.52 1813.25 1109.29 1815.31 1108.67 1849.7"/>
              <polygon class="st56" points="1104.05 2103.5 1384.96 2100.72 1385.27 2065.83 1104.69 2068.53 1104.05 2103.5"/>
              <polygon class="st56" points="1096.98 2492.34 1381.49 2488.55 1381.81 2452.77 1097.64 2456.47 1096.98 2492.34"/>
              <polygon class="st56" points="1106.37 1976.07 1386.09 1973.6 1386.4 1939.01 1107 1941.39 1106.37 1976.07"/>
              <polygon class="st56" points="1101.72 2232.02 1383.81 2228.9 1384.13 2193.73 1102.36 2196.75 1101.72 2232.02"/>
              <polygon class="st56" points="1099.36 2361.63 1382.66 2358.18 1382.97 2322.7 1100.01 2326.06 1099.36 2361.63"/>
              <polygon class="st56" points="1094.59 2624.18 1380.32 2620.04 1380.64 2583.96 1095.24 2588 1094.59 2624.18"/>
              <polygon class="st56" points="1092.17 2757.15 1379.14 2752.66 1379.46 2716.26 1092.83 2720.66 1092.17 2757.15"/>
              <polygon class="st56" points="1089.73 2891.27 1377.94 2886.42 1378.27 2849.72 1090.4 2854.46 1089.73 2891.27"/>
              <polygon class="st56" points="1087.27 3026.56 1376.74 3021.35 1377.07 2984.32 1087.95 2989.43 1087.27 3026.56"/>
            </g>
          </g>
          <g>
            <path class="st59" d="M519.07,1764.07c.36-15.41,16.19-28.09,35.58-28.09h733.01c19.65,0,38.95,13.34,38.95,28.96v1395.91c0,7.51-5.45,14.72-12.14,20.02-6.69,5.3-16.61,8.27-26.07,8.25l-766.41-1.66c-9.54-.02-18.87-3.08-25.54-8.5-6.67-5.42-10.43-12.9-10.25-20.48l32.86-1394.42Z"/>
            <g>
              <g>
                <polygon class="st2" points="1058.89 1900.48 1267.71 1900.25 1269.37 1815.2 1060.35 1815.2 1058.89 1900.48"/>
                <polygon class="st1" points="824.83 1900.43 1033.44 1900.21 1034.87 1815.2 826.05 1815.2 824.83 1900.43"/>
                <polygon class="st4" points="591 1900.39 799.4 1900.17 800.6 1815.2 592 1815.2 591 1900.39"/>
              </g>
              <g>
                <polygon class="st9" points="1056.28 2053.15 1264.74 2053.26 1266.39 1968.75 1057.73 1968.69 1056.28 2053.15"/>
                <polygon class="st8" points="822.63 2053.03 1030.87 2053.14 1032.3 1968.68 823.85 1968.61 822.63 2053.03"/>
                <polygon class="st5" points="589.21 2052.91 797.24 2053.02 798.44 1968.6 590.2 1968.53 589.21 2052.91"/>
              </g>
              <g>
                <polygon class="st7" points="1053.68 2204.78 1261.77 2204.95 1263.42 2120.74 1055.12 2120.6 1053.68 2204.78"/>
                <polygon class="st6" points="820.43 2204.58 1028.32 2204.75 1029.74 2120.59 821.65 2120.45 820.43 2204.58"/>
                <polygon class="st3" points="587.42 2204.39 795.09 2204.56 796.29 2120.43 588.41 2120.3 587.42 2204.39"/>
              </g>
              <g>
                <polygon class="st44" points="1051.09 2355.87 1258.82 2356.12 1260.46 2272.2 1052.53 2271.99 1051.09 2355.87"/>
                <polygon class="st43" points="818.25 2355.6 1025.77 2355.85 1027.18 2271.97 819.46 2271.77 818.25 2355.6"/>
                <polygon class="st40" points="585.63 2355.34 792.95 2355.58 794.14 2271.74 586.62 2271.54 585.63 2355.34"/>
              </g>
              <g>
                <polygon class="st39" points="1048.51 2506.45 1255.88 2506.76 1257.51 2423.13 1049.94 2422.86 1048.51 2506.45"/>
                <polygon class="st46" points="816.07 2506.11 1023.23 2506.41 1024.64 2422.83 817.28 2422.56 816.07 2506.11"/>
                <polygon class="st41" points="583.86 2505.76 790.81 2506.07 792 2422.53 584.84 2422.26 583.86 2505.76"/>
              </g>
              <g>
                <polygon class="st42" points="1045.93 2656.51 1252.95 2656.88 1254.57 2573.55 1047.36 2573.21 1045.93 2656.51"/>
                <polygon class="st45" points="813.89 2656.09 1020.7 2656.46 1022.11 2573.17 815.1 2572.83 813.89 2656.09"/>
                <polygon class="st38" points="582.09 2655.67 788.69 2656.05 789.87 2572.79 583.07 2572.45 582.09 2655.67"/>
              </g>
              <g>
                <polygon class="st47" points="1043.37 2806.05 1250.02 2806.49 1251.65 2723.44 1044.79 2723.04 1043.37 2806.05"/>
                <polygon class="st53" points="811.73 2805.56 1018.18 2806 1019.58 2722.99 812.93 2722.59 811.73 2805.56"/>
                <polygon class="st52" points="580.32 2805.07 786.57 2805.51 787.74 2722.54 581.3 2722.13 580.32 2805.07"/>
              </g>
              <g>
                <polygon class="st49" points="1040.81 2955.08 1247.11 2955.58 1248.73 2872.82 1042.23 2872.35 1040.81 2955.08"/>
                <polygon class="st48" points="809.57 2954.51 1015.67 2955.02 1017.06 2872.29 810.77 2871.82 809.57 2954.51"/>
                <polygon class="st50" points="578.56 2953.95 784.45 2954.45 785.63 2871.77 579.54 2871.3 578.56 2953.95"/>
              </g>
              <g>
                <polygon class="st51" points="1038.27 3103.6 1244.21 3104.16 1245.82 3021.68 1039.68 3021.15 1038.27 3103.6"/>
                <polygon class="st55" points="807.42 3102.96 1013.16 3103.53 1014.55 3021.08 808.62 3020.55 807.42 3102.96"/>
                <polygon class="st54" points="576.81 3102.32 782.35 3102.89 783.52 3020.49 577.78 3019.95 576.81 3102.32"/>
              </g>
            </g>
          </g>
          <g>
            <path class="st59" d="M2432.45,1797.41c.36-15.41,16.19-28.09,35.58-28.09h733.01c19.65,0,38.95,13.34,38.95,28.96v1395.91c0,7.51-5.45,14.72-12.14,20.02-6.69,5.3-16.61,8.27-26.07,8.25l-766.41-1.66c-9.54-.02-18.87-3.08-25.54-8.5-6.67-5.42-10.43-12.9-10.25-20.48l32.86-1394.42Z"/>
            <g class="st64">
              <g>
                <polygon class="st58" points="2972.28 1933.81 3181.1 1933.59 3182.75 1848.53 2973.73 1848.53 2972.28 1933.81"/>
                <polygon class="st58" points="2738.21 1933.77 2946.82 1933.54 2948.25 1848.53 2739.44 1848.53 2738.21 1933.77"/>
                <polygon class="st58" points="2504.38 1933.73 2712.79 1933.5 2713.99 1848.53 2505.39 1848.53 2504.38 1933.73"/>
              </g>
              <g>
                <polygon class="st58" points="2969.67 2086.48 3178.12 2086.59 3179.77 2002.09 2971.12 2002.02 2969.67 2086.48"/>
                <polygon class="st58" points="2736.01 2086.37 2944.26 2086.47 2945.68 2002.01 2737.23 2001.94 2736.01 2086.37"/>
                <polygon class="st58" points="2502.59 2086.25 2710.63 2086.35 2711.83 2001.94 2503.59 2001.87 2502.59 2086.25"/>
              </g>
              <g>
                <polygon class="st58" points="2967.07 2238.11 3175.16 2238.28 3176.8 2154.07 2968.51 2153.94 2967.07 2238.11"/>
                <polygon class="st58" points="2733.82 2237.91 2941.7 2238.09 2943.12 2153.92 2735.03 2153.79 2733.82 2237.91"/>
                <polygon class="st58" points="2500.8 2237.72 2708.48 2237.89 2709.67 2153.77 2501.79 2153.63 2500.8 2237.72"/>
              </g>
              <g>
                <polygon class="st58" points="2964.47 2389.21 3172.21 2389.45 3173.85 2305.53 2965.91 2305.33 2964.47 2389.21"/>
                <polygon class="st58" points="2731.63 2388.94 2939.15 2389.18 2940.57 2305.3 2732.84 2305.1 2731.63 2388.94"/>
                <polygon class="st58" points="2499.02 2388.67 2706.33 2388.91 2707.52 2305.08 2500.01 2304.87 2499.02 2388.67"/>
              </g>
              <g>
                <polygon class="st58" points="2961.89 2539.79 3169.26 2540.09 3170.9 2456.47 2963.33 2456.2 2961.89 2539.79"/>
                <polygon class="st58" points="2729.45 2539.44 2936.62 2539.75 2938.02 2456.16 2730.66 2455.89 2729.45 2539.44"/>
                <polygon class="st58" points="2497.24 2539.1 2704.2 2539.4 2705.38 2455.86 2498.23 2455.59 2497.24 2539.1"/>
              </g>
              <g>
                <polygon class="st58" points="2959.32 2689.85 3166.33 2690.22 3167.96 2606.88 2960.75 2606.54 2959.32 2689.85"/>
                <polygon class="st58" points="2727.28 2689.43 2934.09 2689.8 2935.49 2606.5 2728.48 2606.17 2727.28 2689.43"/>
                <polygon class="st58" points="2495.47 2689.01 2702.07 2689.38 2703.25 2606.12 2496.45 2605.79 2495.47 2689.01"/>
              </g>
              <g>
                <polygon class="st58" points="2956.75 2839.39 3163.41 2839.83 3165.03 2756.77 2958.18 2756.37 2956.75 2839.39"/>
                <polygon class="st58" points="2725.11 2838.89 2931.56 2839.33 2932.96 2756.32 2726.32 2755.92 2725.11 2838.89"/>
                <polygon class="st58" points="2493.71 2838.4 2699.95 2838.84 2701.13 2755.87 2494.69 2755.47 2493.71 2838.4"/>
              </g>
              <g>
                <polygon class="st58" points="2954.2 2988.41 3160.5 2988.92 3162.11 2906.15 2955.62 2905.68 2954.2 2988.41"/>
                <polygon class="st58" points="2722.96 2987.85 2929.05 2988.35 2930.45 2905.63 2724.16 2905.16 2722.96 2987.85"/>
                <polygon class="st58" points="2491.95 2987.28 2697.84 2987.79 2699.01 2905.1 2492.92 2904.63 2491.95 2987.28"/>
              </g>
              <g>
                <polygon class="st58" points="2951.65 3136.93 3157.59 3137.5 3159.2 3055.02 2953.06 3054.48 2951.65 3136.93"/>
                <polygon class="st58" points="2720.81 3136.29 2926.55 3136.86 2927.94 3054.42 2722 3053.89 2720.81 3136.29"/>
                <polygon class="st58" points="2490.2 3135.65 2695.73 3136.22 2696.9 3053.82 2491.17 3053.29 2490.2 3135.65"/>
              </g>
            </g>
          </g>
        </g>
        <g>
          <g>
            <path class="st0" d="M1703.74,2177.14c-59.82-187.83-175.57-337.52-312.67-425.51-122.56-78.67-210.87-201.18-243.56-342.69-3.44-14.87-7.52-29.79-12.27-44.7-71.95-225.89-269.29-364.74-440.77-310.12-171.48,54.62-252.17,282.02-180.22,507.91,14.71,46.19,34.67,88.73,58.58,126.72,76.3,121.23,106.16,266.63,78.09,407.27-25.09,125.68-18.28,267.19,26.57,408.01,66.89,210.02,203.7,372.37,362.12,454.1,59.92,30.91,113.95,72.48,158.69,122.72,74.35,83.48,179.14,122.71,275.41,92.05,103.86-33.08,168.74-138.25,173.41-260.95,2.64-69.44,18.97-137.5,45.58-201.84,62.82-151.9,71.54-343.04,11.05-532.95Z"/>
            <path class="st57" d="M831.06,1275.29c69.95,142.16,135.26,286.45,199.05,431.43,15.96,36.24,31.34,72.73,46.83,109.17l23.23,54.66,22.77,54.86c15.04,36.63,30.59,73.05,45.21,109.86l43.88,110.4c28.31,73.98,57.25,147.71,84.17,222.21,13.51,37.23,27.76,74.19,40.51,111.7l38.78,112.32c50.18,150.27,96.6,301.88,135.21,455.55l-6.63,1.74-33.29-113.87-8.26-28.48-8.97-28.27-18.05-56.5-17.94-56.52c-5.95-18.85-12.59-37.48-18.86-56.23-12.78-37.42-25.25-74.93-38.27-112.26-53.05-149-108.09-297.28-166.19-444.41-29.62-73.34-58.6-146.93-88.73-220.07l-22.45-54.91-22.91-54.73c-15.25-36.5-30.5-72.99-46.12-109.33-30.62-72.95-61.76-145.68-93.5-218.15-31.36-72.64-63.41-145-95.68-217.23l6.2-2.93Z"/>
          </g>
          <g>
            <path class="st62" d="M2204.2,1803.79c-27.96-205.13-120.37-380.94-245.85-496.82-112.17-103.58-181.18-246.31-189.49-398.62-.87-16.01-2.41-32.18-4.63-48.47-33.62-246.7-212.04-426.09-398.5-400.68-186.46,25.41-310.36,246.01-276.74,492.71,6.87,50.45,19.81,98.07,37.63,141.69,56.87,139.23,61.57,295.04,7.43,435.42-48.38,125.45-66.74,273.06-45.78,426.85,31.26,229.37,143.11,422.1,291.66,535.35,56.19,42.84,104.4,95.63,141.49,155.7,61.64,99.82,162.56,159.4,267.24,145.14,112.93-15.39,198.63-112.42,225.45-238.49,15.17-71.35,44.2-138.79,83.15-200.52,91.96-145.73,135.2-341.87,106.94-549.27Z"/>
            <path class="st57" d="M1466.8,712.76c46.58,159.72,87.99,320.82,127.72,482.34,9.95,40.38,19.25,80.91,28.68,121.41l14.14,60.75,13.63,60.87c8.93,40.62,18.42,81.11,26.88,121.83l25.41,122.15c15.9,81.65,32.49,163.16,46.88,245.1,7.25,40.96,15.29,81.77,21.71,122.88l19.82,123.21c24.76,164.53,45.39,329.77,57.63,495.72l-7.15.6-13.88-123.82-3.4-30.95-4.18-30.87-8.47-61.71-8.35-61.72c-2.74-20.57-6.26-41.05-9.35-61.58-6.45-41.02-12.58-82.09-19.3-123.06-27.94-163.73-58.06-327.1-91.54-489.82-17.36-81.23-34.03-162.61-51.96-243.72l-13.28-60.87-13.79-60.76c-9.17-40.51-18.34-81.03-27.92-121.45-18.47-81-37.51-161.88-57.22-242.6-19.28-80.82-39.33-161.48-59.63-242.04l6.91-1.91Z"/>
          </g>
        </g>
        <g>
          <rect class="st36" x="1410.53" y="968.1" width="1673.72" height="2245.56" rx="23.03" ry="23.03"/>
          <rect class="st62" x="1615.89" y="1305.46" width="1259.45" height="1612.4" rx="76.01" ry="76.01"/>
          <rect class="st37" x="1712" y="1438.1" width="1068.23" height="1367.59" rx="22.8" ry="22.8"/>
          <circle class="st11" cx="2244.34" cy="1140.29" r="50.07" transform="translate(-148.95 1920.97) rotate(-45)"/>
          <path class="st10" d="M2567.82,1948.6l-644.17,10.71c-49.03.82-88.92,38.94-88.92,85.15v405.68c0,46.21,39.89,82.07,88.92,80.1l644.17-25.87c46.27-1.86,83.65-39.56,83.65-84.22v-392.07c0-44.66-37.38-80.24-83.65-79.47Z"/>
          <path class="st13" d="M2600.43,1875.23c-19.51.29-35.35-14.77-35.35-33.63v-88.79c0-89.07-75.34-161.32-168.61-161.05l-209.85.61c-95.67.28-174.07,74.66-174.07,165.81v90.86c0,19.31-16.61,35.2-37.13,35.51-20.56.31-37.25-15.14-37.25-34.51v-91.14c0-130.1,112.09-235.95,248.45-235.95h209.85c132.5,0,239.21,102.81,239.21,229.17v88.52c0,18.81-15.77,34.29-35.25,34.58Z"/>
          <path class="st18" d="M2349.95,2173.43c0-45.08-39.36-80.48-87.2-77.23-42.31,2.88-77.3,36.76-79.58,77.21-1.77,31.39,15.48,58.53,41.7,72.25,11.16,5.84,16.7,18.14,14.53,30.31l-18.39,103.21c-2.34,13.14,8.22,24.69,22.12,24.19l47.27-1.69c13.83-.5,24.32-12.75,22-25.68l-18.38-102.26c-2.19-12.2,4.15-24.31,15.33-31,24.32-14.54,40.6-40.33,40.6-69.33Z"/>
        </g>
        <g>
          <g>
            <path class="st15" d="M1056.18,3217.59c.01-.88-.05-1.78-.27-2.68-13.36-52.96-79.66-85.94-79.66-85.94l-26.27,2.06c-15.11,46.68-13.16,75.3-10.74,88.06.07.36.18.7.27,1.04,21.67,1.94,66.28,3.2,116.67-2.53Z"/>
            <path class="st0" d="M939.51,3220.12c1.17,4.26,4.31,7.57,8.34,8.42,30.83,6.48,79.83,1.27,100.4-1.42,4.54-.59,7.86-4.79,7.93-9.53-50.39,5.74-95,4.47-116.67,2.53Z"/>
            <path class="st17" d="M939.42,3091.89l11.13,53.57c.82,3.92,3.83,6.86,7.48,7.21,4.47.42,10.84.67,17.24-.27,5.74-.84,9.74-6.68,8.72-12.94l-7.73-47.56h-36.84Z"/>
            <path class="st0" d="M1169.96,3219.44c-29.02-.81-44.02-4.23-51.78-7.4-.02,2.88,0,5.82.09,8.86.1,3.25,2.51,5.84,5.47,5.83l159.31-1.03c5.08-.03,8.05-5.93,5.85-10.59-20.89,1.73-74.09,5.59-118.94,4.33Z"/>
            <path class="st19" d="M1288.9,3215.11c-.19-.41-.36-.82-.63-1.2-14.07-19.66-49.9-58.81-120.71-75.79l-33.97-1.07s-15.13,26.29-15.41,74.99c7.76,3.17,22.77,6.59,51.78,7.4,44.85,1.26,98.05-2.61,118.94-4.33Z"/>
            <path class="st16" d="M1125.78,3087.15c.54,2.5,7.6,40.62,10.34,55.4.65,3.51,3.39,6.09,6.64,6.27,5.82.33,15.2.36,23.26-1.83,4.35-1.18,7.28-5.62,6.97-10.54l-3.8-60.29-43.41,10.99Z"/>
            <path class="st12" d="M1100.04,2383.41s46.73,321.1,80.45,703.2c.63,7.12-5.04,13.31-12.03,14.78-10.3,2.17-25.44,4.75-37.98,4.39-6.69-.19-12.29-5.15-13.41-11.75-11.49-67.37-93.46-428.94-114.98-508.52,0,0-24.71,338.03-16.81,513.4.2,4.36-3,8.14-7.33,8.64-6.58.76-17.1,1.34-30.49-.08-5.08-.54-9.18-4.38-9.91-9.44-8.18-57.02-55.28-396.4-53.28-640.89.11-13.79,16.18-127.06,16.18-127.06l199.61,53.33Z"/>
          </g>
          <path class="st14" d="M1118.15,1843.43l6.26,168.02c17.77,6.12,34.69,10.87,50.8,14.42,10.08-32.44,32.27-72.26,50.43-101.87-66.76-23.6-107.49-80.58-107.49-80.58Z"/>
          <path class="st20" d="M893.41,2401.91c-4.8-1.71-8.15-6.06-8.68-11.13-6.21-60.29-36.3-434.09,153.65-587.86,0,0,10.89-28.5,100.43,41.56,89.54,70.06,41.6,143.49,20.16,244.77-25.94,122.56-71.45,222.74-51.32,298.17,1.39,5.2-1.35,10.67-6.4,12.53-69.55,25.63-138.84,26.48-207.85,1.96Z"/>
          <path class="st21" d="M1112.47,1690.92c-.06,5.32-75.91,113.05-75.91,113.05,0,0,13.61,26.81,78.61,48.58l56.1-115.35-58.8-46.28Z"/>
          <path class="st22" d="M1074.9,2059.56c-.47,0-.96-.14-1.38-.42-60.59-40.94-89.1-107.02-89.38-107.68-.53-1.26.06-2.7,1.31-3.23,1.26-.53,2.7.05,3.23,1.3.27.65,28.25,65.42,87.6,105.52,1.13.76,1.42,2.29.66,3.42-.47.7-1.25,1.08-2.04,1.08Z"/>
          <path class="st25" d="M1165.15,1967.97c-.81,0-1.6-.4-2.07-1.13-.18-.28-18.69-29.1-53.95-92.23-10.84-19.41-25.09-31.71-42.35-36.54-28.58-7.99-56.13,7.34-56.4,7.49-1.19.65-2.68.26-3.36-.92-.67-1.18-.26-2.69.92-3.36,1.19-.67,29.52-16.53,60.12-7.96,18.59,5.19,33.86,18.27,45.37,38.88,35.17,62.97,53.61,91.69,53.79,91.97.74,1.14.41,2.67-.74,3.4-.41.27-.88.39-1.33.39Z"/>
          <g>
            <path class="st26" d="M1172.19,1629.19s26.99,62,28.8,94.54c1.81,32.54,8.82,53.65-28.8,60.21-37.62,6.55-69.32-12.19-86.49-44.6,0,0-26.9-49.95-20.87-70.4,6.03-20.45,107.36-39.74,107.36-39.74Z"/>
            <path class="st28" d="M1098.56,1716.02l2.14-.94c2.73-1.2,3.89-4.45,2.52-7.09-5.31-10.25-15.65-33.74-2.29-39.22,17.22-7.06,85.43-20.97,100.15-45.18,14.14-23.26,1.61-53.29-17.22-61.83-1.26-.57-2.75-.12-3.39,1.11l-1.57,2.97c-1.07,2.03-4.08,1.72-4.72-.48h0c-.61-2.12-3.43-2.53-4.6-.66-4.52,7.24-16.74,18.98-49.4,25.01-46.42,8.57-77.1,27.35-77.87,59.43-.05,2.04-2.22,3.17-3.96,2.11-3.43-2.09-8.91-3.07-16.24,3.09-12.75,10.72-7.53,38.52,20.41,61.4,1.33,1.09,1.32,3.16-.12,4.09-5.07,3.3-12.62,11.14,6.95,21.6,20.24,10.82,35.35,9.93,41.17,8.97,1.45-.24,2.38-1.64,2.06-3.07l-6.21-28.19c-.35-1.6.86-3.11,2.5-3.11h9.68Z"/>
            <path class="st23" d="M1099.73,1721.97s-10.3-39.6-28.05-28.5c-17.76,11.1,9.21,44.37,23.49,45.85l4.56-17.36Z"/>
          </g>
          <path class="st27" d="M1449.19,1830.79s-13.53-23.98-12.67-35.64c.86-11.65-6.4-28.76,1.33-27.5,7.73,1.27,9.32.23,11.42,14.21,2.1,13.98,26.48,75.05-.08,48.92Z"/>
          <path class="st24" d="M1451.74,1792.66l-.31,47.91c-91.57,98.87-165.69,104.69-225.79,83.44-18.17,29.61-40.36,69.42-50.43,101.87,244.54,53.91,302.12-170.9,302.12-170.9,33.12-13.72,39.8-21.75,38.37-30.74l-63.96-31.59Z"/>
          <path class="st29" d="M1522.16,1745.13c-7.82-3.17-23.11-32.33-26.04-22.74-2.93,9.59,1.24,22.74,0,26.82-1.24,4.08-20.3,51.01-16.5,61.43,2.75,7.52,17.89,6.41,20.2,18.72.77,4.08,4.03,7.01,7.82,7.02,3.79,0,7.05-2.92,7.82-7.01.31-1.64,14.51-81.07,6.7-84.24Z"/>
          <g>
            <path class="st30" d="M1272.56,1645.34c-61.75,122.13-12.8,271.19,109.33,332.94,99.26,50.19,216.32,27.25,289.83-48.68l424.33,214.54c7.05,3.56,15.43,3.27,22.21-.77l41.5-24.72c.71-.43,1.39-.89,2.04-1.38.18-.14.36-.28.54-.43.48-.39.95-.79,1.39-1.2.15-.14.3-.28.45-.43.55-.55,1.08-1.11,1.57-1.7,0,0,.02-.02.02-.03,5.21-6.34,6.8-15.19,3.61-23.19l-33.72-84.53c-2.08-5.22-6-9.5-11.02-12.04l-42.5-21.49-11.25,22.25-36.51-18.46,11.25-22.25-34.16-17.27-10.35,20.46-44.37-22.44,10.35-20.46-16.53-8.36-5.33,10.53-37.2-18.81,5.33-10.53-28.93-14.63-11.25,22.25-20.67-10.45,11.25-22.25-17.91-9.06-11.25,22.24-35.82-18.11,11.25-22.25-50.35-25.46h0l-21.56-10.9c17.57-104.21-33.35-212.08-132.61-262.27-122.13-61.75-271.19-12.8-332.94,109.33ZM1417.14,1662.21c24.73,12.5,34.64,42.69,22.14,67.42-12.5,24.73-42.69,34.64-67.42,22.14-24.73-12.5-34.64-42.69-22.14-67.42,12.5-24.73,42.69-34.64,67.42-22.14Z"/>
            <path class="st31" d="M1616.51,1720.18l201.15,101.7-11.25,22.25,35.82,18.11,11.25-22.25,17.91,9.06-11.25,22.25,20.67,10.45,11.25-22.25,28.93,14.63-5.33,10.53,37.2,18.81,5.33-10.53,16.53,8.36-10.35,20.46,44.37,22.44,10.35-20.46,34.16,17.27-11.25,22.25,36.51,18.46,11.25-22.25,42.5,21.49c5.02,2.54,8.93,6.82,11.02,12.04l33.72,84.53c4.2,10.53.12,22.56-9.62,28.37l-41.5,24.72c-6.79,4.04-15.17,4.33-22.21.77l-512.24-258.99,25.06-152.22Z"/>
            <path class="st32" d="M1389.53,1965.52c122.13,61.75,271.19,12.8,332.94-109.33,61.75-122.13,12.8-271.19-109.33-332.94-122.13-61.75-271.19-12.8-332.94,109.33-61.75,122.13-12.8,271.19,109.33,332.94ZM1379.49,1739.01c-24.73-12.5-34.64-42.69-22.14-67.42,12.5-24.73,42.69-34.64,67.42-22.14,24.73,12.5,34.64,42.69,22.14,67.42-12.5,24.73-42.69,34.64-67.42,22.14Z"/>
            <path class="st33" d="M1679.36,1916.84l424.33,214.54c7.05,3.56,15.43,3.27,22.21-.77l41.5-24.72c6.26-3.73,10.14-10.03,11.03-16.85-38.67-41.9-406.29-202.43-420.04-235.47-4.89-11.75-5.73-29.55,8.93-57.15l-21.56-10.9c17.57-104.21-33.35-212.08-132.61-262.27-122.13-61.75-271.19-12.8-332.94,109.33-61.75,122.13-12.8,271.19,109.33,332.94,99.26,50.19,216.32,27.24,289.83-48.68ZM1424.77,1649.46c24.73,12.5,34.64,42.69,22.14,67.42-12.5,24.73-42.69,34.64-67.42,22.14-24.73-12.5-34.64-42.69-22.14-67.42,12.5-24.73,42.69-34.64,67.42-22.14Z"/>
            <path class="st34" d="M1411.47,1922.12c98.16,49.63,217.97,10.29,267.6-87.87,49.63-98.16,10.29-217.97-87.87-267.6-98.16-49.63-217.97-10.29-267.6,87.87-49.63,98.16-10.29,217.97,87.87,267.6ZM1379.49,1739.01c-24.73-12.5-34.64-42.69-22.14-67.42,12.5-24.73,42.69-34.64,67.42-22.14,24.73,12.5,34.64,42.69,22.14,67.42-12.5,24.73-42.69,34.64-67.42,22.14Z"/>
          </g>
          <path class="st35" d="M1074.9,2059.56s233.35,78.12,363.87-21.26c8.1-6.16,18.31-8.85,28.35-7.22l49.86,8.12c20.93,3.41,40.87-10.15,45.38-30.87,2.57-11.82,3.81-24.75,1.19-35.85l-94.13-5.68,2.69-12.21s-41.61,10.18-42.44,42.73c0,0-97.6,63.93-275.6-35.3,0,0-69.32,54.25-79.17,97.54Z"/>
        </g>
        <g>
          <g>
            <g class="st65">
              <path class="st0" d="M2877.24,889.66c-5.43-.22-9.66-4.81-9.43-10.24.43-10.56.41-21.29-.06-31.9-.24-5.37,3.87-9.92,9.21-10.26.06,0,.13,0,.19-.01,5.43-.24,10.03,3.97,10.27,9.4.5,11.17.52,22.46.06,33.58-.21,5.08-4.24,9.1-9.2,9.42-.34.02-.69.03-1.04.01ZM2861.92,796.04c-1.91-10.44-4.29-20.9-7.07-31.09-1.43-5.24,1.66-10.66,6.91-12.09,5.27-1.42,10.66,1.67,12.09,6.91,2.92,10.72,5.43,21.73,7.44,32.72.98,5.35-2.56,10.48-7.91,11.46-.39.07-.78.12-1.16.14-4.91.31-9.39-3.09-10.3-8.05ZM2837.79,716.05c-4.18-9.73-8.83-19.39-13.83-28.73-2.57-4.79-.76-10.76,4.03-13.33,4.79-2.56,10.76-.76,13.33,4.03,5.26,9.83,10.16,20.01,14.56,30.25,2.15,5-.17,10.78-5.16,12.93-1.07.46-2.17.71-3.26.78-4.04.26-7.98-2.01-9.67-5.94ZM2796.38,643.47c-6.25-8.56-12.95-16.94-19.9-24.93-3.57-4.1-3.14-10.32.96-13.89,4.1-3.57,10.32-3.14,13.89.96,7.32,8.41,14.37,17.23,20.95,26.24,3.21,4.39,2.25,10.55-2.14,13.76-1.57,1.15-3.37,1.76-5.18,1.88-3.25.21-6.52-1.2-8.58-4.01ZM2739.83,581.93c-7.98-6.94-16.37-13.64-24.93-19.9-4.39-3.21-5.34-9.37-2.14-13.76,3.21-4.39,9.37-5.35,13.76-2.13,9.01,6.59,17.84,13.63,26.23,20.94,4.1,3.57,4.54,9.79.97,13.89-1.8,2.07-4.27,3.2-6.8,3.36-2.49.16-5.05-.63-7.08-2.4ZM2671.07,534.42c-9.33-5.01-18.99-9.68-28.71-13.88-4.99-2.16-7.29-7.95-5.13-12.94,2.16-4.99,7.95-7.29,12.94-5.13,10.23,4.42,20.4,9.34,30.22,14.61,4.79,2.57,6.59,8.54,4.01,13.33-1.67,3.11-4.78,4.96-8.06,5.17-1.77.11-3.59-.25-5.27-1.15ZM2305.5,529.84c-2.56-4.8-.74-10.76,4.05-13.32,9.83-5.24,20.02-10.12,30.29-14.51,5-2.14,10.79.19,12.92,5.19,2.14,5-.19,10.78-5.19,12.92-9.75,4.16-19.43,8.8-28.76,13.78-1.28.68-2.64,1.05-4,1.14-3.73.24-7.44-1.68-9.32-5.2ZM2593.54,503.36c-10.2-2.81-20.65-5.21-31.06-7.13-5.35-.99-8.88-6.13-7.89-11.47.99-5.35,6.12-8.85,11.47-7.89,10.96,2.03,21.96,4.55,32.71,7.51,5.24,1.44,8.32,6.86,6.88,12.11-1.14,4.16-4.79,6.96-8.87,7.21-1.06.07-2.15-.04-3.24-.34ZM2384.44,496.21c-1.42-5.25,1.69-10.65,6.94-12.07,10.75-2.91,21.77-5.39,32.75-7.38,5.35-.99,10.47,2.58,11.44,7.93.97,5.35-2.58,10.47-7.93,11.44-10.43,1.89-20.91,4.25-31.12,7.01-.65.18-1.31.28-1.95.32-4.58.29-8.88-2.66-10.12-7.26ZM2511.03,490.41c-10.57-.45-21.29-.46-31.89-.01-5.43.23-10.02-3.98-10.25-9.42-.23-5.36,3.88-9.9,9.21-10.24.07,0,.14,0,.21,0,11.15-.48,22.44-.47,33.57,0,5.43.24,9.65,4.83,9.41,10.26-.22,5.07-4.24,9.09-9.2,9.4-.35.02-.7.03-1.06.01Z"/>
              <path class="st0" d="M2257,572.95c1.93-.12,3.85-.81,5.49-2.11,3.97-3.16,8.08-6.28,12.21-9.3,4.39-3.2,5.36-9.36,2.15-13.76-3.2-4.39-9.37-5.36-13.76-2.15-4.34,3.17-8.66,6.45-12.84,9.77-4.26,3.38-4.97,9.58-1.59,13.83,2.08,2.63,5.24,3.9,8.35,3.71Z"/>
            </g>
            <g class="st65">
              <path class="st0" d="M2113.47,836.58c4.74-.3,8.7-4,9.17-8.89.48-5.05,1.08-10.18,1.78-15.24.74-5.39-3.03-10.36-8.41-11.1-5.41-.74-10.36,3.03-11.1,8.41-.73,5.33-1.36,10.73-1.87,16.05-.52,5.41,3.45,10.22,8.86,10.74.53.05,1.06.06,1.57.02Z"/>
              <path class="st0" d="M2499.68,1256.89c-5.44.08-9.91-4.27-9.99-9.71-.08-5.44,4.26-9.9,9.7-9.98,10.35-.15,20.86-.74,31.34-1.76,5.38-.54,10.23,3.44,10.75,8.85.53,5.41-3.43,10.23-8.85,10.75-4.54.44-9.08.81-13.6,1.09-6.45.41-12.97.66-19.37.76ZM2573.73,1238.92c-1.25-5.29,2.02-10.59,7.31-11.85,10.16-2.41,20.32-5.27,30.21-8.51,5.16-1.71,10.73,1.12,12.42,6.29,1.69,5.16-1.12,10.73-6.29,12.42-10.41,3.41-21.11,6.43-31.8,8.96-.55.13-1.11.21-1.66.25-4.7.3-9.07-2.82-10.19-7.56ZM2446.11,1253.98c-10.87-1.34-21.84-3.16-32.59-5.43-5.32-1.12-8.73-6.34-7.61-11.66,1.12-5.32,6.34-8.72,11.66-7.61,10.21,2.15,20.62,3.88,30.94,5.15,5.4.67,9.23,5.58,8.57,10.98-.59,4.77-4.5,8.32-9.14,8.62-.6.04-1.22.02-1.84-.05ZM2653.95,1212.57c-2.39-4.89-.36-10.78,4.53-13.17,9.37-4.57,18.65-9.6,27.59-14.94,4.67-2.79,10.71-1.27,13.5,3.4,2.79,4.67,1.27,10.71-3.4,13.5-9.42,5.63-19.19,10.92-29.05,15.74-1.19.58-2.44.9-3.69.98-3.86.25-7.67-1.82-9.48-5.51ZM2361.94,1233.94c-10.3-3.7-20.59-7.89-30.58-12.46-4.94-2.26-7.12-8.1-4.86-13.04,2.26-4.95,8.1-7.12,13.05-4.86,9.49,4.34,19.26,8.32,29.05,11.83,5.12,1.84,7.78,7.48,5.94,12.59-1.37,3.81-4.85,6.26-8.65,6.5-1.3.08-2.64-.09-3.95-.56ZM2284.21,1195.93c-9.27-5.87-18.4-12.21-27.13-18.82-4.33-3.29-5.19-9.46-1.9-13.79,3.29-4.34,9.46-5.19,13.79-1.9,8.3,6.29,16.98,12.31,25.78,17.89,4.59,2.91,5.96,8.99,3.05,13.59-1.76,2.77-4.66,4.36-7.7,4.55-2,.13-4.06-.35-5.89-1.51ZM2216.61,1141.88c-7.77-7.76-15.31-15.93-22.39-24.29-3.52-4.15-3-10.36,1.15-13.88,4.15-3.52,10.36-3,13.88,1.15,6.73,7.94,13.89,15.7,21.27,23.08,3.85,3.84,3.86,10.08.01,13.92-1.76,1.77-4.03,2.73-6.34,2.87-2.72.17-5.5-.78-7.58-2.86ZM2162.41,1074.36c-5.89-9.27-11.45-18.9-16.53-28.62-2.52-4.82-.65-10.77,4.17-13.29,4.81-2.51,10.77-.65,13.28,4.17,4.82,9.23,10.1,18.37,15.7,27.17,2.92,4.59,1.56,10.67-3.03,13.59-1.45.92-3.05,1.42-4.65,1.52-3.47.22-6.95-1.41-8.94-4.55ZM2124.35,996.55c-3.69-10.31-6.99-20.92-9.81-31.53-1.4-5.26,1.73-10.65,6.99-12.04,5.24-1.39,10.65,1.73,12.04,6.99,2.67,10.08,5.81,20.16,9.32,29.95,1.83,5.12-.83,10.75-5.95,12.59-.89.32-1.8.5-2.7.56-4.27.27-8.38-2.29-9.89-6.51ZM2104.33,912.37c-1-8.01-1.77-16.15-2.28-24.19-.18-2.91-.34-5.82-.46-8.72-.23-5.43,3.92-10.12,9.43-10.24,5.43-.23,10.02,3.99,10.25,9.43.12,2.76.26,5.52.43,8.29.49,7.65,1.21,15.38,2.16,23,.68,5.39-3.15,10.32-8.55,10.99-.2.02-.41.05-.61.06-5.15.33-9.73-3.41-10.38-8.61Z"/>
              <path class="st0" d="M2734.91,1172.72c1.95-.12,3.89-.83,5.53-2.14,4.16-3.34,8.32-6.82,12.38-10.36,4.1-3.57,4.52-9.79.95-13.89-3.58-4.1-9.79-4.53-13.89-.95-3.86,3.36-7.81,6.67-11.76,9.84-4.24,3.4-4.92,9.6-1.52,13.84,2.09,2.6,5.22,3.86,8.31,3.67Z"/>
            </g>
            <g>
              <path class="st0" d="M2753.51,1004.97c1.14-1.6,1.15-3.74,0-5.34l-32.44-45.66c9.97-24.18,16.15-50.13,17.92-76.98l49.21-26.66c1.73-.94,2.67-2.86,2.35-4.8l-10.99-66.27c-.32-1.94-1.84-3.46-3.77-3.78l-55.18-9.34c-10.34-24.85-24.57-47.41-41.81-67.08l15.96-53.68c.56-1.88-.14-3.91-1.73-5.05l-54.63-39.09c-1.6-1.14-3.74-1.15-5.34,0l-45.66,32.44c-24.18-9.97-50.13-16.15-76.98-17.92l-26.66-49.21c-.94-1.73-2.86-2.67-4.8-2.35l-66.27,10.99c-1.94.32-3.46,1.84-3.78,3.77l-9.34,55.19c-24.85,10.34-47.41,24.57-67.08,41.81l-53.68-15.96c-1.88-.56-3.91.14-5.05,1.73l-39.09,54.63c-1.14,1.6-1.15,3.74,0,5.34l32.44,45.66c-9.97,24.18-16.15,50.12-17.92,76.98l-49.21,26.66c-1.73.93-2.67,2.86-2.35,4.8l10.99,66.27c.32,1.94,1.84,3.46,3.77,3.78l55.18,9.34c10.34,24.85,24.57,47.41,41.81,67.08l-15.96,53.68c-.56,1.88.14,3.91,1.73,5.05l54.63,39.09c1.6,1.14,3.74,1.15,5.34,0l45.66-32.44c24.18,9.97,50.12,16.15,76.98,17.92l26.66,49.21c.93,1.72,2.86,2.67,4.8,2.35l66.27-10.99c1.94-.32,3.46-1.84,3.78-3.77l9.34-55.18c24.85-10.34,47.41-24.57,67.08-41.81l53.68,15.96c1.88.56,3.91-.14,5.05-1.73l39.09-54.63Z"/>
              <path class="st59" d="M2488.49,927.94c-37.11-3.09-64.78-35.78-61.7-72.89,1.49-17.98,9.9-34.29,23.67-45.95,13.76-11.65,31.24-17.25,49.22-15.75,37.11,3.09,64.78,35.78,61.7,72.89-2.81,33.76-30.12,59.71-62.97,61.8-3.26.21-6.57.18-9.92-.1ZM2460.63,821.13c-10.56,8.94-17,21.44-18.15,35.23-2.36,28.45,18.86,53.52,47.31,55.88,28.46,2.38,53.52-18.86,55.89-47.31,2.36-28.45-18.86-53.52-47.31-55.88-2.58-.21-5.14-.24-7.68-.08-11.02.7-21.48,4.89-30.06,12.15Z"/>
              <path class="st59" d="M2503.21,1025.46c5.64-.36,11.3-1,16.95-1.94h0c1.78-.29,3.55-.62,5.32-.97,8.72-1.74,17.3-4.17,25.58-7.25.11-.04.23-.08.34-.13.32-.12.64-.24.96-.37.62-.24,1.24-.48,1.86-.72,1.63-.64,2.59-2.25,2.48-3.91-.03-.4-.11-.81-.27-1.2-.8-2.02-3.09-3.01-5.11-2.21-10.41,4.12-21.33,7.14-32.46,8.98-55.29,9.18-108.74-11.66-143.67-50.55-19.43-21.63-33.13-48.85-38.23-79.6-.9-5.39-1.51-10.79-1.85-16.17-2.29-36.22,7.85-71.82,29.25-101.73,24.58-34.36,61.07-57.09,102.75-64,86.07-14.27,167.64,44.12,181.91,130.15.88,5.3,1.49,10.63,1.82,15.97,1.46,23.1-2.15,46.27-10.65,67.82-.22.56-.3,1.13-.27,1.69.09,1.47,1.02,2.84,2.49,3.41,2.03.79,4.31-.19,5.11-2.22,8.93-22.63,12.72-46.95,11.18-71.2-.35-5.6-.99-11.19-1.91-16.76-14.98-90.33-100.67-151.61-190.96-136.64-43.75,7.26-82.06,31.12-107.87,67.19-22.47,31.4-33.12,68.78-30.71,106.8.36,5.65,1.01,11.32,1.94,16.98,7.26,43.76,31.12,82.06,67.18,107.87,31.41,22.47,68.8,33.12,106.83,30.71Z"/>
            </g>
          </g>
          <g>
            <g class="st65">
              <path class="st0" d="M3230.02,1127.3c2.63-.17,4.93-2.03,5.54-4.73,1.14-5.04,2.14-10.17,2.97-15.27.54-3.31-1.7-6.44-5.02-6.98-3.32-.56-6.44,1.71-6.98,5.02-.8,4.86-1.75,9.76-2.83,14.56-.74,3.27,1.32,6.53,4.59,7.27.58.13,1.16.17,1.73.13Z"/>
              <path class="st0" d="M3235.47,1080.93c-3.36-.13-5.97-2.95-5.84-6.31.32-8.47.21-17.05-.32-25.51-.11-1.78-.25-3.57-.4-5.37-.28-3.34,2.2-6.29,5.55-6.57,3.17-.14,6.29,2.2,6.57,5.55.16,1.88.3,3.75.42,5.61.56,8.87.68,17.87.33,26.75-.12,3.14-2.61,5.64-5.68,5.83-.2.01-.41.01-.62,0ZM3224.43,1013.18c-2.11-10.06-4.85-20.08-8.16-29.77-1.09-3.18.61-6.63,3.79-7.72,3.16-1.08,6.63.61,7.72,3.79,3.47,10.16,6.35,20.67,8.56,31.21.69,3.29-1.42,6.51-4.71,7.2-.29.06-.58.1-.87.11-2.97.19-5.7-1.83-6.33-4.82ZM3204.48,954.87c-4.5-9.22-9.62-18.26-15.24-26.86-1.83-2.81-1.04-6.58,1.77-8.41,2.82-1.84,6.58-1.05,8.42,1.77,5.89,9.02,11.26,18.5,15.98,28.17,1.47,3.02.22,6.66-2.8,8.13-.74.36-1.51.55-2.28.6-2.39.15-4.74-1.12-5.85-3.4ZM3170.8,903.23c-6.63-7.85-13.82-15.36-21.34-22.31-2.47-2.28-2.62-6.13-.34-8.59,2.27-2.46,6.12-2.62,8.59-.34,7.89,7.29,15.42,15.16,22.38,23.4,2.17,2.56,1.84,6.4-.72,8.57-1.04.87-2.28,1.34-3.53,1.42-1.86.12-3.74-.61-5.04-2.14ZM3125.54,861.38c-8.34-6-17.12-11.53-26.12-16.46-2.94-1.61-4.02-5.31-2.41-8.25,1.61-2.95,5.31-4.03,8.25-2.41,9.43,5.16,18.64,10.97,27.38,17.25,2.72,1.96,3.35,5.76,1.39,8.49-1.11,1.54-2.8,2.41-4.56,2.52-1.35.09-2.75-.28-3.93-1.13ZM3071.49,831.79c-9.54-3.79-19.4-7.01-29.32-9.58-3.25-.84-5.2-4.16-4.36-7.41.84-3.25,4.15-5.2,7.41-4.36,10.4,2.7,20.75,6.08,30.75,10.05,3.12,1.24,4.65,4.77,3.41,7.89-.9,2.26-3,3.68-5.27,3.83-.87.06-1.76-.07-2.63-.42ZM3011.87,816.32c-10.14-1.33-20.51-2.03-30.8-2.09-3.36-.02-6.06-2.76-6.04-6.12.02-3.36,2.75-6.01,6.12-6.05,10.79.07,21.66.81,32.3,2.2,3.33.44,5.68,3.49,5.24,6.82-.38,2.93-2.79,5.1-5.64,5.28-.39.02-.78.01-1.18-.04ZM2912.5,816.93c-.8-3.26,1.2-6.55,4.47-7.35,9.03-2.2,18.34-3.95,27.64-5.19,1.41-.2,2.82-.37,4.23-.54,3.31-.48,6.36,2,6.74,5.34.39,3.34-2,6.35-5.34,6.74-1.32.15-2.65.32-4,.5-8.9,1.18-17.78,2.85-26.39,4.95-.35.09-.71.14-1.06.16-2.89.18-5.58-1.72-6.29-4.63Z"/>
            </g>
            <g class="st65">
              <path class="st0" d="M2992.3,1327.05c-10.58.53-21.29.42-31.83-.32-3.35-.24-5.87-3.14-5.64-6.5.24-3.35,3.17-5.84,6.5-5.64,10.05.71,20.26.81,30.36.3,3.35-.17,6.21,2.41,6.38,5.77.17,3.33-2.37,6.17-5.69,6.38-.03,0-.06,0-.08,0ZM3016.93,1318.57c-.57-3.31,1.65-6.45,4.96-7.02,9.96-1.71,19.91-4.05,29.58-6.94,3.2-.95,6.61.87,7.57,4.09.96,3.22-.87,6.6-4.08,7.57-10.14,3.03-20.57,5.48-31,7.27-.22.04-.44.06-.66.08-3.06.19-5.84-1.94-6.37-5.04ZM2928.89,1322.54c-10.41-2.04-20.78-4.73-30.82-8-3.19-1.04-4.94-4.48-3.9-7.67,1.04-3.2,4.46-4.93,7.66-3.9,9.58,3.12,19.47,5.69,29.4,7.64,3.3.65,5.44,3.84,4.8,7.13-.54,2.77-2.89,4.73-5.58,4.9-.51.03-1.03,0-1.56-.1ZM3076.85,1302.15c-1.35-3.07.05-6.66,3.13-8.01,9.25-4.06,18.34-8.72,27.02-13.87,2.89-1.71,6.62-.75,8.33,2.12,1.71,2.89.76,6.62-2.13,8.33-9.1,5.4-18.64,10.3-28.34,14.55-.67.29-1.37.46-2.06.5-2.48.16-4.9-1.22-5.95-3.63ZM2868.47,1302.85c-9.59-4.47-19-9.58-27.98-15.18-2.85-1.78-3.72-5.53-1.94-8.38,1.78-2.85,5.53-3.73,8.38-1.94,8.57,5.35,17.54,10.22,26.69,14.48,3.04,1.42,4.36,5.04,2.94,8.08-.97,2.09-2.98,3.36-5.13,3.5-.98.06-1.99-.11-2.95-.56ZM2814.53,1269.23c-8.25-6.65-16.18-13.87-23.55-21.44-2.34-2.4-2.29-6.25.11-8.59,2.4-2.34,6.25-2.29,8.6.11,7.03,7.22,14.59,14.1,22.47,20.45,2.61,2.11,3.02,5.94.92,8.55-1.11,1.38-2.71,2.15-4.35,2.25-1.46.09-2.97-.34-4.2-1.33ZM2770.18,1223.66c-6.43-8.44-12.39-17.35-17.72-26.47-1.7-2.9-.72-6.62,2.18-8.32,2.9-1.7,6.62-.71,8.32,2.18,5.08,8.7,10.77,17.2,16.9,25.24,2.03,2.67,1.52,6.49-1.16,8.52-.99.76-2.14,1.16-3.29,1.23-1.96.12-3.95-.7-5.23-2.38Z"/>
              <path class="st0" d="M3136.47,1273.92c1.17-.07,2.33-.49,3.33-1.26,4.12-3.18,8.16-6.5,12.02-9.87,2.53-2.21,2.79-6.05.59-8.58-2.21-2.52-6.05-2.79-8.58-.59-3.68,3.21-7.53,6.38-11.46,9.41-2.66,2.05-3.14,5.88-1.09,8.53,1.28,1.66,3.25,2.47,5.2,2.35Z"/>
            </g>
            <g>
              <path class="st0" d="M3152.61,1159.29c.76-1.07.77-2.5,0-3.58l-21.7-30.55c6.67-16.18,10.81-33.54,11.99-51.51l32.93-17.84c1.16-.63,1.79-1.92,1.57-3.21l-7.35-44.35c-.21-1.3-1.23-2.31-2.52-2.53l-36.93-6.25c-6.92-16.63-16.44-31.72-27.98-44.89l10.68-35.92c.37-1.26-.09-2.62-1.16-3.38l-36.56-26.16c-1.07-.76-2.5-.77-3.58,0l-30.55,21.7c-16.18-6.67-33.54-10.81-51.51-11.99l-17.84-32.93c-.63-1.16-1.92-1.79-3.21-1.57l-44.35,7.35c-1.3.22-2.31,1.23-2.53,2.52l-6.25,36.93c-16.63,6.92-31.72,16.44-44.89,27.98l-35.92-10.68c-1.26-.37-2.62.09-3.38,1.16l-26.16,36.56c-.76,1.07-.77,2.5,0,3.57l21.7,30.55c-6.67,16.18-10.81,33.54-11.99,51.51l-32.93,17.84c-1.16.62-1.79,1.91-1.57,3.21l7.35,44.35c.22,1.3,1.23,2.31,2.52,2.53l36.93,6.25c6.92,16.63,16.44,31.72,27.98,44.89l-10.68,35.92c-.37,1.26.09,2.62,1.16,3.38l36.56,26.16c1.07.76,2.5.77,3.58,0l30.55-21.7c16.18,6.67,33.54,10.81,51.51,11.99l17.84,32.93c.63,1.15,1.92,1.79,3.21,1.57l44.35-7.35c1.3-.22,2.31-1.23,2.53-2.52l6.25-36.93c16.63-6.92,31.72-16.44,44.89-27.98l35.92,10.68c1.26.37,2.62-.09,3.38-1.16l26.16-36.56Z"/>
              <path class="st59" d="M2975.21,1108.55c-12.25-1.01-23.36-6.74-31.3-16.12-7.94-9.37-11.75-21.28-10.73-33.53,2.1-25.27,24.34-44.09,49.65-42.03,25.28,2.11,44.13,24.38,42.02,49.65-1.02,12.24-6.74,23.36-16.12,31.3-7.62,6.45-16.92,10.18-26.71,10.8-2.25.14-4.53.12-6.82-.07ZM2945.29,1059.91c-.75,9.01,2.05,17.77,7.89,24.67,5.84,6.89,14.02,11.11,23.02,11.86h0c9.01.74,17.76-2.06,24.67-7.9,6.9-5.83,11.11-14.02,11.86-23.02,1.55-18.59-12.32-34.97-30.91-36.52-1.68-.14-3.34-.15-4.97-.05-16.46,1.04-30.15,14.05-31.56,30.96Z"/>
              <path class="st59" d="M2985.45,1176.43c3.84-.24,7.7-.69,11.57-1.32,7.69-1.27,15.27-3.33,22.52-6.12.33-.13.65-.26.98-.38,2.51-.99,4-3.47,3.84-6.03-.04-.62-.18-1.25-.42-1.86-1.23-3.12-4.77-4.64-7.89-3.41-6.75,2.67-13.82,4.63-21.01,5.81h0c-.39.07-.79.13-1.18.19-17.04,2.66-34.1.97-49.92-4.69-8.59-3.07-16.81-7.32-24.47-12.7-.06-.04-.12-.09-.19-.13-.19-.14-.38-.27-.57-.4-22.24-15.92-36.96-39.54-41.43-66.52-.58-3.49-.98-6.98-1.2-10.47-1.49-23.45,5.08-46.5,18.94-65.86,15.92-22.24,39.54-36.95,66.52-41.42,26.96-4.46,54.09,1.83,76.33,17.74,22.24,15.92,36.96,39.54,41.43,66.52.57,3.43.96,6.88,1.18,10.33.95,14.96-1.39,29.95-6.89,43.9-.34.86-.47,1.75-.41,2.61.14,2.28,1.57,4.38,3.84,5.27,3.13,1.22,6.65-.3,7.89-3.43,6.16-15.61,8.77-32.39,7.72-49.12-.25-3.86-.68-7.72-1.32-11.56-5.01-30.19-21.47-56.62-46.36-74.42-24.88-17.8-55.2-24.87-85.39-19.84-30.19,5-56.61,21.46-74.42,46.35-15.5,21.66-22.85,47.45-21.19,73.68.25,3.89.69,7.8,1.34,11.71,9.7,58.44,62.28,99.27,120.18,95.59Z"/>
            </g>
          </g>
        </g>
      </g>
    </g>
  </g>
</svg>